<svg width="30" height="30" viewBox="0 0 39 39" fill="none" xmlns="http://www.w3.org/2000/svg">
<path d="M26.0188 26.3741C26.127 24.7627 25.7125 23.5296 24.775 22.6737L31.414 15.4022C31.9062 15.8516 32.4969 16.0611 33.1847 16.0294C33.8732 15.9983 34.4424 15.7365 34.8918 15.2443C35.3414 14.7519 35.5503 14.1614 35.5187 13.4729C35.4879 12.7851 35.2258 12.2159 34.7335 11.7664L25.6445 3.46813C25.1521 3.01852 24.5618 2.80951 23.8735 2.8408C23.1852 2.87206 22.6164 3.13378 22.1668 3.62628C21.7172 4.11869 21.5081 4.70895 21.5395 5.39728C21.5708 6.0855 21.8327 6.65445 22.325 7.10392L15.6863 14.3752C14.7489 13.5194 13.483 13.2187 11.8882 13.4726C10.2935 13.7268 8.96469 14.4357 7.90116 15.6005C7.67644 15.8467 7.57187 16.1419 7.58761 16.486C7.60354 16.8301 7.73443 17.1145 7.98061 17.3392L13.7181 22.5776L8.5086 30.4511C8.32238 30.75 8.35736 31.016 8.61298 31.2493L8.62746 31.2626C8.74057 31.3658 8.87482 31.4147 9.02855 31.4078C9.18241 31.4006 9.3208 31.3488 9.44338 31.2525L16.4304 25.054L22.523 30.6166C22.7691 30.8413 23.0645 30.9461 23.4082 30.9304C23.7525 30.9151 24.0371 30.7842 24.2619 30.5381C25.3254 29.3735 25.9106 27.9853 26.0188 26.3741ZM19.2821 16.8255C19.1613 16.9579 19.0194 17.0279 18.8562 17.0353C18.6931 17.0428 18.5453 16.9859 18.4128 16.8649C18.2804 16.744 18.2102 16.602 18.2028 16.4389C18.1954 16.2758 18.2524 16.1281 18.3733 15.9957L24.1822 9.63324C24.3032 9.50072 24.4453 9.43042 24.6082 9.4232C24.7711 9.41594 24.919 9.47281 25.0515 9.59371C25.184 9.71469 25.2541 9.85663 25.2615 10.0197C25.269 10.1827 25.2121 10.3306 25.0911 10.4631L19.2821 16.8255Z" fill="black"/>
</svg>
