<svg xmlns="http://www.w3.org/2000/svg" width="486" height="333" viewBox="0 0 486 333" fill="none"><path d="M229.758 187C237.49 187 243.758 193.268 243.758 201L243.758 256C243.758 263.732 237.49 270 229.758 270L174.758 270C167.026 270 160.758 263.732 160.758 256L160.758 201C160.758 193.268 167.026 187 174.758 187L229.758 187Z" fill="#eedcdc"/><path d="M104.532 268C102.798 268 101.325 267.48 100.112 266.44C99.0717 265.227 98.5517 263.753 98.5517 262.02V224.06H14.0517C12.3184 224.06 10.8451 223.54 9.63172 222.5C8.59172 221.287 8.07172 219.813 8.07172 218.08V208.46C8.07172 206.033 9.02505 203.433 10.9317 200.66L89.1917 90.42C90.0584 89.0333 91.3584 87.9933 93.0917 87.3C94.8251 86.4333 96.7317 86 98.8117 86H116.492C118.398 86 119.872 86.52 120.912 87.56C121.952 88.6 122.472 90.0733 122.472 91.98V202.22H146.132C147.865 202.22 149.252 202.827 150.292 204.04C151.505 205.08 152.112 206.467 152.112 208.2V218.08C152.112 219.813 151.505 221.287 150.292 222.5C149.252 223.54 147.865 224.06 146.132 224.06H122.472V262.02C122.472 263.753 121.865 265.227 120.652 266.44C119.612 267.48 118.225 268 116.492 268H104.532ZM35.1117 202.74H98.8117V112.26L35.1117 202.74ZM242.894 270.6C220.534 270.6 204.154 264.1 193.754 251.1C183.528 237.927 178.068 220.767 177.374 199.62L177.114 177.26L177.374 154.12C177.894 133.147 183.354 116.16 193.754 103.16C204.328 89.9867 220.708 83.4 242.894 83.4C265.254 83.4 281.634 89.9867 292.034 103.16C302.608 116.16 308.154 133.147 308.674 154.12C308.848 158.973 308.934 166.687 308.934 177.26C308.934 187.487 308.848 194.94 308.674 199.62C307.981 220.767 302.434 237.927 292.034 251.1C281.808 264.1 265.428 270.6 242.894 270.6ZM242.894 249.02C256.241 249.02 266.294 244.6 273.054 235.76C279.814 226.92 283.368 214.44 283.714 198.32C283.888 193.293 283.974 186.1 283.974 176.74C283.974 167.207 283.888 160.1 283.714 155.42C283.368 139.473 279.728 127.08 272.794 118.24C266.034 109.227 256.068 104.72 242.894 104.72C229.721 104.72 219.754 109.227 212.994 118.24C206.234 127.08 202.681 139.473 202.334 155.42L202.074 176.74L202.334 198.32C202.681 214.44 206.234 226.92 212.994 235.76C219.754 244.6 229.721 249.02 242.894 249.02ZM429.786 268C428.052 268 426.579 267.48 425.366 266.44C424.326 265.227 423.806 263.753 423.806 262.02V224.06H339.306C337.572 224.06 336.099 223.54 334.886 222.5C333.846 221.287 333.326 219.813 333.326 218.08V208.46C333.326 206.033 334.279 203.433 336.186 200.66L414.446 90.42C415.312 89.0333 416.612 87.9933 418.346 87.3C420.079 86.4333 421.986 86 424.066 86H441.746C443.652 86 445.126 86.52 446.166 87.56C447.206 88.6 447.726 90.0733 447.726 91.98V202.22H471.386C473.119 202.22 474.506 202.827 475.546 204.04C476.759 205.08 477.366 206.467 477.366 208.2V218.08C477.366 219.813 476.759 221.287 475.546 222.5C474.506 223.54 473.119 224.06 471.386 224.06H447.726V262.02C447.726 263.753 447.119 265.227 445.906 266.44C444.866 267.48 443.479 268 441.746 268H429.786ZM360.366 202.74H424.066V112.26L360.366 202.74Z" fill="#272727"/><path d="M317.888 187.792C314.725 192.31 308.499 193.408 303.981 190.245L272.829 168.432C268.312 165.269 267.214 159.042 270.377 154.525L292.19 123.373C295.353 118.856 301.579 117.758 306.097 120.921L337.249 142.734C341.766 145.897 342.864 152.123 339.701 156.641L317.888 187.792Z" fill="#f5e6d3"/></svg>