<svg width="128" height="128" viewBox="0 0 128 128" fill="none" xmlns="http://www.w3.org/2000/svg">
<rect width="128" height="128" fill="#F3F3F3"/>
<path d="M76.1709 55.2135C76.5526 54.831 77.1964 54.9774 77.3075 55.5068C77.8418 58.0535 77.1226 60.8115 75.1498 62.7889C73.0527 64.8908 70.0756 65.573 67.4072 64.8355C67.1358 64.7605 66.8416 64.8265 66.6426 65.026L63.8937 67.7812C63.6946 67.9808 63.3986 68.0525 63.1377 67.9465C62.1805 67.5575 61.2837 66.9739 60.5074 66.1959C59.7312 65.4178 59.149 64.5189 58.7609 63.5596C58.6551 63.2981 58.7267 63.0014 58.9257 62.8018L61.6746 60.0466C61.8737 59.8471 61.9395 59.5522 61.8647 59.2802C61.1289 56.6057 61.8095 53.6216 63.9066 51.5197C65.9387 49.4829 68.7973 48.7792 71.4005 49.4087C71.9172 49.5337 72.052 50.1694 71.6761 50.5461L68.0203 54.2104C67.8582 54.3729 67.7804 54.6015 67.8098 54.8294L68.2132 57.9631C68.2562 58.2972 68.5186 58.5603 68.852 58.6034L71.9785 59.0077C72.2058 59.0371 72.4339 58.9592 72.596 58.7967L76.1709 55.2135Z" fill="black"/>
<path d="M122 44.4161V32.1853H87.9807V85H100.738V65.7273H120.706V54.0524H100.738V44.4161H122Z" fill="#0073AA"/>
<path d="M87.9807 38.369C92.6655 42.3927 95.9294 48.0308 96.9141 54.4231H87.9807V38.369Z" fill="#00669D"/>
<path d="M87.9807 78.6309C92.5747 74.6852 95.8024 69.187 96.8543 62.9475H87.9807V78.6309Z" fill="#00669D"/>
<path d="M94.5107 54.4231C92.5542 41.7231 81.6013 32 68.3828 32C53.7809 32 41.9438 43.8645 41.9438 58.5C41.9438 73.1355 53.7809 85 68.3828 85C81.4725 85 92.3404 75.4656 94.4509 62.9476H82.2306C80.3548 68.8198 74.8641 73.0711 68.3828 73.0711C60.3539 73.0711 53.8453 66.5474 53.8453 58.5C53.8453 50.4526 60.3539 43.9289 68.3828 43.9289C74.9997 43.9289 80.5841 48.3599 82.3435 54.4231H94.5107Z" fill="#0073AA"/>
<path d="M45.4082 45.3767C43.2036 49.2457 41.9438 53.7254 41.9438 58.5C41.9438 70.6761 50.137 80.9343 61.2989 84.038L45.4082 45.3767Z" fill="#00669D"/>
<path fill-rule="evenodd" clip-rule="evenodd" d="M7 84.6294H20.4968L23.3339 77.0315H41.3253L44.1624 84.6294H58.3987L36.7669 32H27.7074L7 84.6294ZM36.8274 64.986L32.3296 52.9406L27.8317 64.986H36.8274Z" fill="#0073AA"/>
<path d="M9.98388 98.35H6.40888L5.72688 100H3.90088L7.33288 92.3H9.09288L12.5359 100H10.6659L9.98388 98.35ZM9.42288 96.997L8.20188 94.049L6.98088 96.997H9.42288Z" fill="#0073AA"/>
<path d="M19.7723 100.132C18.9877 100.132 18.2763 99.9633 17.6383 99.626C17.0077 99.2813 16.509 98.8083 16.1423 98.207C15.783 97.5983 15.6033 96.9126 15.6033 96.15C15.6033 95.3873 15.783 94.7053 16.1423 94.104C16.509 93.4953 17.0077 93.0223 17.6383 92.685C18.2763 92.3403 18.9913 92.168 19.7833 92.168C20.4507 92.168 21.052 92.2853 21.5873 92.52C22.13 92.7546 22.5847 93.092 22.9513 93.532L21.8073 94.588C21.2867 93.9866 20.6413 93.686 19.8713 93.686C19.3947 93.686 18.9693 93.7923 18.5953 94.005C18.2213 94.2103 17.928 94.5 17.7153 94.874C17.51 95.248 17.4073 95.6733 17.4073 96.15C17.4073 96.6266 17.51 97.052 17.7153 97.426C17.928 97.8 18.2213 98.0933 18.5953 98.306C18.9693 98.5113 19.3947 98.614 19.8713 98.614C20.6413 98.614 21.2867 98.3096 21.8073 97.701L22.9513 98.757C22.5847 99.2043 22.13 99.5453 21.5873 99.78C21.0447 100.015 20.4397 100.132 19.7723 100.132Z" fill="#0073AA"/>
<path d="M28.7967 93.73V95.765H32.3607V97.195H28.7967V100H27.0147V92.3H32.8337V93.73H28.7967Z" fill="#0073AA"/>
<path d="M47.8751 98.57V100H41.9131V92.3H47.7321V93.73H43.6841V95.402H47.2591V96.788H43.6841V98.57H47.8751Z" fill="#272727"/>
<path d="M56.4888 100L54.6298 97.327L52.8038 100H50.7578L53.6068 96.084L50.9008 92.3H52.9248L54.6958 94.797L56.4338 92.3H58.3588L55.6748 96.018L58.5458 100H56.4888Z" fill="#272727"/>
<path d="M63.1723 93.752H60.7083V92.3H67.4183V93.752H64.9543V100H63.1723V93.752Z" fill="#272727"/>
<path d="M76.7591 98.57V100H70.7971V92.3H76.6161V93.73H72.5681V95.402H76.1431V96.788H72.5681V98.57H76.7591Z" fill="#272727"/>
<path d="M87.659 92.3V100H86.196L82.357 95.325V100H80.597V92.3H82.071L85.899 96.975V92.3H87.659Z" fill="#272727"/>
<path d="M91.9008 92.3H95.3988C96.2348 92.3 96.9718 92.4614 97.6098 92.784C98.2551 93.0994 98.7538 93.5467 99.1058 94.126C99.4651 94.7054 99.6448 95.38 99.6448 96.15C99.6448 96.92 99.4651 97.5947 99.1058 98.174C98.7538 98.7534 98.2551 99.2044 97.6098 99.527C96.9718 99.8424 96.2348 100 95.3988 100H91.9008V92.3ZM95.3108 98.537C96.0808 98.537 96.6931 98.3244 97.1478 97.899C97.6098 97.4664 97.8408 96.8834 97.8408 96.15C97.8408 95.4167 97.6098 94.8374 97.1478 94.412C96.6931 93.9794 96.0808 93.763 95.3108 93.763H93.6828V98.537H95.3108Z" fill="#272727"/>
<path d="M109.371 98.57V100H103.409V92.3H109.228V93.73H105.18V95.402H108.755V96.788H105.18V98.57H109.371Z" fill="#272727"/>
<path d="M113.209 92.3H116.707C117.543 92.3 118.28 92.4614 118.918 92.784C119.563 93.0994 120.062 93.5467 120.414 94.126C120.773 94.7054 120.953 95.38 120.953 96.15C120.953 96.92 120.773 97.5947 120.414 98.174C120.062 98.7534 119.563 99.2044 118.918 99.527C118.28 99.8424 117.543 100 116.707 100H113.209V92.3ZM116.619 98.537C117.389 98.537 118.001 98.3244 118.456 97.899C118.918 97.4664 119.149 96.8834 119.149 96.15C119.149 95.4167 118.918 94.8374 118.456 94.412C118.001 93.9794 117.389 93.763 116.619 93.763H114.991V98.537H116.619Z" fill="#272727"/>
</svg>
