<svg width="128" height="128" viewBox="0 0 128 128" fill="none" xmlns="http://www.w3.org/2000/svg">
<g clip-path="url(#clip0_1507_7867)">
<rect width="128" height="128" fill="white"/>
<path d="M57.4934 127.66C41.6038 126 26.2414 118.083 15.9446 106.25C-5.31487 81.8184 -5.31487 46.1293 15.9446 21.6976C21.2022 15.6554 28.5808 10.0563 36.1198 6.3878C56.4364 -3.49832 80.7798 -1.81318 99.5092 10.7759C106.787 15.6676 112.5 21.3957 117.317 28.629C131.561 50.0184 131.561 77.9294 117.317 99.3188C104.116 119.144 80.9611 130.113 57.4934 127.66V127.66ZM73.7013 124.407C90.8219 121.502 105.246 112.2 114.85 97.8728C128.709 77.1977 128.709 50.7501 114.85 30.0749C105.103 15.533 90.4184 6.20237 72.8184 3.36705C69.1934 2.78307 58.8177 2.77952 55.16 3.36101C37.8905 6.10657 22.7562 15.6772 13.2526 29.8624C3.82903 43.9282 0.645971 60.4283 4.18577 76.8625C9.00042 99.2154 26.2941 117.288 48.4498 123.12C50.5865 123.683 53.6061 124.309 55.16 124.512C56.7139 124.715 58.4621 124.949 59.0448 125.032C61.0856 125.323 70.7276 124.912 73.7013 124.407V124.407ZM58.5151 118.664C50.1276 117.62 41.6006 114.708 35.0751 110.658L33.7081 109.809L35.6797 109.578C41.7743 108.861 48.996 105.272 53.8331 100.554L56.0336 98.4076L56.9669 100.249C58.2814 102.843 61.7323 106.162 64.5189 107.514C67.9076 109.158 70.5367 109.726 74.791 109.736C83.6015 109.756 91.2887 106.305 97.9968 99.319C102.39 94.7436 104.835 90.0421 105.992 83.9424C108.13 72.6708 103.281 63.7507 93.799 61.5161C90.8864 60.8296 86.7763 60.8276 84.1057 61.5111C81.6653 62.1358 76.5166 64.5119 74.8491 65.7831C74.2178 66.2643 73.7013 66.4932 73.7013 66.2917C73.7013 66.0902 75.529 57.4649 77.7627 47.1244C79.9965 36.7839 81.8242 27.7989 81.8242 27.1577C81.8242 25.6092 81.309 25.4698 78.0221 26.1291C76.5198 26.4304 72.4299 27.0129 68.9335 27.4236C60.8898 28.3685 60.1267 28.5656 59.6009 29.8349C59.1037 31.0349 59.5553 32.499 60.594 33.0549C60.979 33.2609 62.1571 33.4294 63.212 33.4294C64.6433 33.4294 65.3764 33.6232 66.101 34.1931C67.0514 34.9405 67.0687 35.0213 66.9175 37.9891C66.8152 39.9962 65.7674 45.5577 63.8182 54.4397C62.1986 61.8198 60.8372 67.9067 60.7927 67.9662C60.7482 68.0257 59.8955 67.2114 58.8977 66.1565C54.7161 61.7359 47.4735 59.8548 41.0192 61.5131C38.5169 62.156 34.4221 64.037 32.2062 65.5613C31.3309 66.1634 30.6148 66.579 30.6148 66.4848C30.6148 66.3906 32.523 57.4761 34.8552 46.6747C39.4702 25.3011 39.4598 25.394 37.2053 25.7823C32.9226 26.5201 23.7102 27.7934 23.2768 27.7076C22.4347 27.5408 29.4085 21.0969 33.1107 18.6208C39.4905 14.3541 46.2335 11.5438 53.6669 10.0535C59.3347 8.91719 68.6436 8.91719 74.3115 10.0535C96.5313 14.5083 113.072 30.9125 117.91 53.2924C119.047 58.5498 119.047 69.3976 117.91 74.6551C115.327 86.6052 109.673 96.5614 100.895 104.616C93.7052 111.214 84.3737 115.89 74.5014 117.841C70.8128 118.571 61.5841 119.045 58.5151 118.663V118.664ZM29.9526 104.157C26.7577 103.028 24.611 99.6462 24.611 95.7422C24.611 92.8541 27.9514 77.4383 29.0778 75.1279C33.1134 66.8509 44.9365 63.5584 49.9939 69.3031C52.3108 71.9348 53.2575 76.5181 52.5401 81.6296C50.8745 93.4968 45.5093 101.744 37.9116 104.115C35.4377 104.887 32.0695 104.905 29.9526 104.157V104.157ZM73.2591 104.276C69.6784 102.941 67.7069 99.9565 67.7009 95.8603C67.6989 94.3757 68.3441 90.4042 69.4341 85.1947C70.798 78.6757 71.4139 76.4382 72.3036 74.7691C76.1503 67.5532 86.1972 64.0803 91.6987 68.065C94.4971 70.0918 95.6965 73.2878 95.6589 78.6172C95.5822 89.4673 90.0873 99.9448 82.6481 103.425C80.7237 104.326 79.722 104.562 77.4256 104.654C75.5924 104.728 74.1141 104.594 73.2591 104.276V104.276ZM13.313 85.1607C12.0617 82.1064 10.7425 77.6884 10.0469 74.2225C8.92468 68.6316 8.93094 59.2863 10.0607 53.6531C11.3581 47.1836 13.7421 41.0067 17.0824 35.4599C18.3024 33.4341 18.309 33.4296 20.0224 33.4296C20.9669 33.4296 22.1318 33.5786 22.611 33.7607C23.7908 34.2092 24.387 36.1163 24.0842 38.4737C23.8849 40.0253 14.2294 84.8206 13.8687 85.8669C13.8018 86.0612 13.5517 85.7433 13.313 85.1607H13.313Z" fill="black"/>
</g>
<defs>
<clipPath id="clip0_1507_7867">
<rect width="128" height="128" fill="white"/>
</clipPath>
</defs>
</svg>
