<svg width="128" height="128" viewBox="0 0 128 128" fill="none" xmlns="http://www.w3.org/2000/svg">
<rect width="128" height="128" fill="#EAEAEA"/>
<path fill-rule="evenodd" clip-rule="evenodd" d="M70.5 23.5C70.5 23.8944 70.4674 24.2811 70.4047 24.6577L91.4957 36.7655C92.4537 37.3154 92.7844 38.5378 92.2345 39.4957C91.6846 40.4537 90.4622 40.7844 89.5043 40.2345L68.637 28.2552C67.3584 29.6358 65.5301 30.5 63.5 30.5C59.634 30.5 56.5 27.366 56.5 23.5C56.5 19.634 59.634 16.5 63.5 16.5C67.366 16.5 70.5 19.634 70.5 23.5ZM54.5098 30.2264C55.4632 29.6687 55.7841 28.4437 55.2264 27.4902C54.6687 26.5368 53.4437 26.2159 52.4902 26.7736L31.7807 38.8868C30.5295 37.7164 28.8484 37 27 37C23.134 37 20 40.134 20 44C20 47.866 23.134 51 27 51C30.866 51 34 47.866 34 44C34 43.4276 33.9313 42.8712 33.8017 42.3387L54.5098 30.2264ZM65.5 35C65.5 33.8954 64.6046 33 63.5 33C62.3954 33 61.5 33.8954 61.5 35V54.1902C59.1283 54.6476 57.0407 55.9031 55.528 57.6662L38.9886 48.2614C38.0284 47.7154 36.8074 48.0512 36.2614 49.0114C35.7154 49.9716 36.0512 51.1926 37.0114 51.7386L53.5484 61.142C53.1928 62.1964 53 63.3257 53 64.5C53 69.6151 56.6576 73.8759 61.5 74.8098V93.5C61.5 94.6046 62.3954 95.5 63.5 95.5C64.6046 95.5 65.5 94.6046 65.5 93.5V74.8098C70.3424 73.8759 74 69.6151 74 64.5C74 59.3849 70.3424 55.1241 65.5 54.1902V35ZM107 44C107 47.171 104.891 49.8496 102 50.7101V73.5C102 74.6046 101.105 75.5 100 75.5C98.8954 75.5 98 74.6046 98 73.5V50.7101C96.9081 50.3851 95.9278 49.8009 95.1305 49.0288L78.4794 58.3808C77.5163 58.9217 76.2971 58.5794 75.7562 57.6164C75.2153 56.6533 75.5575 55.4341 76.5206 54.8932L93.1704 45.542C93.0589 45.0458 93 44.5298 93 44C93 40.134 96.134 37 100 37C103.866 37 107 40.134 107 44ZM29 55.5C29 54.3954 28.1046 53.5 27 53.5C25.8954 53.5 25 54.3954 25 55.5V78.2899C22.1085 79.1504 20 81.829 20 85C20 88.866 23.134 92 27 92C30.866 92 34 88.866 34 85C34 84.4859 33.9446 83.9847 33.8394 83.5021L51.4681 73.7501C52.4347 73.2154 52.7847 71.9984 52.2501 71.0319C51.7154 70.0653 50.4984 69.7153 49.5319 70.2499L31.9018 80.0027C31.0988 79.215 30.1067 78.6193 29 78.2899V55.5ZM78.4794 70.6192C77.5163 70.0783 76.2971 70.4206 75.7562 71.3836C75.2153 72.3467 75.5575 73.5659 76.5206 74.1068L93.1704 83.458C93.0589 83.9542 93 84.4702 93 85C93 85.5997 93.0754 86.1818 93.2173 86.7373L73.971 98.285C73.0238 98.8533 72.7167 100.082 73.285 101.029C73.8533 101.976 75.0818 102.283 76.029 101.715L95.2767 90.1664C96.5217 91.3052 98.1797 92 100 92C103.866 92 107 88.866 107 85C107 81.134 103.866 78 100 78C98.1075 78 96.3904 78.751 95.1305 79.9712L78.4794 70.6192ZM37.9852 89.7595C37.0239 89.2154 35.8036 89.5535 35.2595 90.5148C34.7154 91.4761 35.0535 92.6964 36.0148 93.2405L56.5019 104.837C56.5006 104.891 56.5 104.946 56.5 105C56.5 108.866 59.634 112 63.5 112C67.366 112 70.5 108.866 70.5 105C70.5 101.134 67.366 98 63.5 98C61.137 98 59.0475 99.1709 57.7799 100.964L37.9852 89.7595Z" fill="#231F21"/>
<circle cx="63.5" cy="64.5" r="6.5" fill="#FEF200"/>
<path d="M66.5 23.5C66.5 25.1569 65.1569 26.5 63.5 26.5C61.8431 26.5 60.5 25.1569 60.5 23.5C60.5 21.8431 61.8431 20.5 63.5 20.5C65.1569 20.5 66.5 21.8431 66.5 23.5Z" fill="#8EC641"/>
<path d="M66.5 105C66.5 106.657 65.1569 108 63.5 108C61.8431 108 60.5 106.657 60.5 105C60.5 103.343 61.8431 102 63.5 102C65.1569 102 66.5 103.343 66.5 105Z" fill="white"/>
<circle cx="100" cy="44" r="3" fill="#D81B5B"/>
<circle cx="100" cy="85" r="3" fill="#C5996A"/>
<circle cx="27" cy="44" r="3" fill="#01AFEE"/>
<circle cx="27" cy="85" r="3" fill="#F8951E"/>
</svg>
