<svg width="128" height="128" viewBox="0 0 128 128" fill="none" xmlns="http://www.w3.org/2000/svg">
<rect width="128" height="128" fill="white"/>
<path d="M83.4909 119.158L80.7471 118.277C79.8849 119.147 79.0319 119.581 78.1853 119.581C77.5371 119.581 76.9218 119.372 76.3384 118.952C75.7551 118.532 75.437 117.819 75.3839 116.814H83.6299C83.6299 115.64 83.4507 114.576 83.0923 113.623C82.7329 112.67 82.0929 111.873 81.1704 111.233C80.2479 110.593 79.1535 110.273 77.8872 110.273C76.141 110.273 74.7037 110.844 73.5764 111.988C72.4481 113.132 71.884 114.557 71.884 116.265C71.884 117.943 72.4308 119.296 73.5252 120.325C74.6187 121.355 76.1419 121.869 78.0939 121.869C80.5414 121.868 82.3398 120.964 83.4909 119.158ZM77.7053 112.615C78.3992 112.615 78.946 112.833 79.3473 113.267C79.7487 113.702 79.9901 114.228 80.0724 114.845H75.4406C75.6536 113.359 76.4088 112.615 77.7053 112.615Z" fill="#2B2C2B"/>
<path d="M69.4812 107.801C69.9082 107.801 70.2364 108.197 70.465 108.99L73.0268 106.989C72.2945 105.952 71.0629 105.434 69.3322 105.434C67.9059 105.434 66.8334 105.824 66.113 106.606C65.3916 107.387 65.0323 108.361 65.0323 109.528V110.545H63.5448V113.096H65.0323V119.067H63.4314V121.616H70.305V119.067H68.5669V113.096H70.305V110.545H68.5669V109.333C68.5669 108.312 68.8714 107.801 69.4812 107.801Z" fill="#2B2C2B"/>
<path d="M108.915 117.316C108.61 117.85 108.206 118.278 107.703 118.602C107.2 118.927 106.667 119.088 106.102 119.088C105.393 119.088 104.795 118.839 104.307 118.339C103.82 117.839 103.575 117.068 103.575 116.023C103.575 115.162 103.805 114.473 104.267 113.958C104.728 113.444 105.348 113.187 106.126 113.187C107.345 113.187 108.241 113.805 108.814 115.039H111.329V110.544H108.916V111.46C107.879 110.735 106.762 110.373 105.565 110.373C104.07 110.373 102.761 110.882 101.637 111.9C100.513 112.918 99.9497 114.308 99.9497 116.069C99.9497 117.83 100.524 119.237 101.671 120.29C102.819 121.342 104.357 121.868 106.286 121.868C108.848 121.868 110.64 120.752 111.662 118.523L108.915 117.316Z" fill="#2B2C2B"/>
<path d="M124.343 113.622C123.984 112.669 123.344 111.872 122.421 111.232C121.499 110.592 120.403 110.272 119.138 110.272C117.392 110.272 115.954 110.843 114.827 111.987C113.699 113.131 113.134 114.556 113.134 116.264C113.134 117.942 113.681 119.295 114.775 120.325C115.869 121.354 117.392 121.868 119.344 121.868C121.791 121.868 123.59 120.965 124.742 119.158L121.998 118.277C121.136 119.147 120.283 119.581 119.435 119.581C118.787 119.581 118.172 119.372 117.588 118.952C117.005 118.533 116.687 117.819 116.634 116.814H124.879C124.881 115.639 124.701 114.576 124.343 113.622ZM116.692 114.845C116.905 113.359 117.66 112.615 118.957 112.615C119.651 112.615 120.198 112.833 120.599 113.267C121 113.702 121.242 114.228 121.324 114.845H116.692Z" fill="#2B2C2B"/>
<path d="M98.7483 121.616V119.067H97.0788V114.651C97.0788 111.801 95.9615 110.374 93.727 110.374C92.629 110.374 91.5474 110.775 90.4795 111.576V110.546H85.2534V113.097H86.9458V119.067H85.2534V121.617H92.1837V119.067H90.4804V114.069C91.1661 113.589 91.8363 113.349 92.4927 113.349C92.8658 113.349 93.1355 113.459 93.2991 113.68C93.4637 113.902 93.5451 114.313 93.5451 114.915V121.616H98.7483Z" fill="#2B2C2B"/>
<path d="M13.6549 121.719L16.022 114.457L18.5271 121.719H21.5004L25.8926 108.396H27.6188V105.708H21.249V108.396H22.8389L20.3338 116.036L17.7262 108.396H19.2019V105.708H13.483V108.396H14.9248L12.5002 116.036L9.91547 108.396H11.5621V105.708H4.39136V108.396H6.07181L10.6131 121.719H13.6549Z" fill="#00719E"/>
<path d="M36.1335 120.301C37.2426 119.256 37.7975 117.846 37.7975 116.068C37.7975 114.269 37.2371 112.853 36.1171 111.82C34.9953 110.787 33.6156 110.271 31.9763 110.271C30.3452 110.271 28.9674 110.787 27.8419 111.82C26.7173 112.853 26.155 114.269 26.155 116.068C26.155 117.869 26.7173 119.285 27.8419 120.318C28.9665 121.351 30.3452 121.867 31.9763 121.867C33.6385 121.868 35.0245 121.346 36.1335 120.301ZM30.3242 118.283C29.9621 117.722 29.7802 117.012 29.7802 116.15C29.7802 114.045 30.5079 112.993 31.9644 112.993C32.6428 112.993 33.1804 113.258 33.5763 113.787C33.9731 114.318 34.1715 115.055 34.1715 116.001C34.1715 117.076 33.9676 117.865 33.5589 118.368C33.1511 118.871 32.6199 119.122 31.9635 119.122C31.233 119.123 30.6853 118.842 30.3242 118.283Z" fill="#00719E"/>
<path d="M45.4483 115.326C45.814 114.656 46.2794 114.221 46.8435 114.022C47.4076 113.824 48.1363 113.725 49.0277 113.725V110.385C48.8065 110.378 48.6163 110.374 48.4563 110.374C47.4954 110.374 46.6625 110.67 45.9575 111.26C45.2517 111.851 44.8001 112.55 44.6026 113.36V110.546H39.4451V113.096H41.366V119.067H39.3198V121.616H47.1086V119.067H44.9015V117.706C44.8997 116.79 45.0826 115.997 45.4483 115.326Z" fill="#00719E"/>
<path d="M58.0646 121.616H63.4159V119.067H61.5983V105.708H56.3366V108.259H58.0637V111.778C57.2244 110.773 56.1601 110.272 54.8728 110.272C53.5306 110.272 52.3951 110.826 51.4644 111.936C50.5345 113.045 50.0701 114.408 50.0701 116.025C50.0701 117.618 50.5226 118.976 51.4305 120.097C52.3375 121.218 53.4813 121.778 54.8609 121.778C56.012 121.778 57.0799 121.285 58.0637 120.3V121.616H58.0646ZM57.4292 118.306C56.983 118.768 56.4664 118.998 55.8794 118.998C55.17 118.998 54.6287 118.714 54.2548 118.146C53.8808 117.578 53.6943 116.879 53.6943 116.048C53.6943 115.171 53.8826 114.464 54.2602 113.925C54.6378 113.388 55.1736 113.119 55.8676 113.119C56.4463 113.119 56.9629 113.345 57.4173 113.794C57.8708 114.244 58.0984 114.999 58.0984 116.059C58.0984 117.095 57.8753 117.844 57.4292 118.306Z" fill="#00719E"/>
<path d="M63.8118 23.8592L63.8136 23.8628L69.9411 37.3257L69.9987 37.4546L67.9059 37.4628C67.9087 37.4802 67.9105 37.4985 67.9133 37.5158C67.9462 37.7161 67.9727 37.9172 67.9727 38.1266C67.9727 38.7876 67.8017 39.4029 67.5119 39.9469C67.3775 40.1993 67.2193 40.4379 67.0365 40.6564C67.0365 40.6564 66.7631 43.6004 66.7896 49.0669C66.7896 49.0733 66.7896 49.0788 66.7896 49.0852C66.8061 52.3611 66.9889 57.2032 67.372 62.4996C73.7811 62.8626 79.7423 63.5931 85.2152 64.5467V41.6877L83.6179 41.6813L87.7085 32.6976L91.6335 41.7133L90.0353 41.7069V65.4665C95.8685 66.6797 101.057 68.1216 105.535 69.5872V49.6832L103.938 49.6768L108.028 40.693L111.953 49.7088L110.355 49.7024V71.2667C115.662 73.2315 119.622 75.0948 122.064 76.3456C125.116 47.5538 118.863 22.5801 118.863 22.5801C89.7281 21.6384 63.8118 6.13208 63.8118 6.13208V23.8592Z" fill="#218DC1"/>
<path d="M110.355 76.3657V98.8727H117.164C118.125 95.7532 118.957 92.5449 119.654 89.4089L119.655 89.4098C120.526 86.2647 121.055 83.6837 121.374 81.8167C121.375 81.8176 121.387 81.7463 121.392 81.7125C121.412 81.5936 121.431 81.4793 121.449 81.3669C119.746 80.4471 115.948 78.5207 110.355 76.3657Z" fill="#218DC1"/>
<path d="M90.0354 70.3286V98.8735H105.535V74.6194C101.122 73.1163 95.9234 71.6059 90.0354 70.3286Z" fill="#218DC1"/>
<path d="M85.2151 98.8727V69.365C79.8666 68.3913 74.027 67.637 67.7605 67.2512C67.7623 67.2759 67.7651 67.3006 67.7669 67.3244C67.7788 67.4432 68.1774 70.5911 68.2396 71.1205C69.216 78.4055 71.19 89.899 73.2078 98.8553H73.1072C73.1082 98.8608 73.11 98.8663 73.1109 98.8718H85.2151V98.8727Z" fill="#218DC1"/>
<path d="M54.4158 98.8562C56.4336 89.8999 58.4075 78.4064 59.384 71.1214C59.3776 71.1214 59.3694 71.1223 59.3639 71.1232V71.1214C59.3703 71.1214 59.3776 71.1223 59.384 71.1223C59.4462 70.5929 59.8448 67.4441 59.8567 67.3262C59.8585 67.3015 59.8612 67.2777 59.8631 67.2531C53.5536 67.6425 47.7076 68.4041 42.4084 69.365V98.8736H54.5118C54.5127 98.8681 54.5136 98.8626 54.5154 98.8572H54.4158V98.8562Z" fill="#1A719D"/>
<path d="M17.2692 71.2658V49.7014L15.671 49.7078L19.596 40.6921L23.6866 49.6759L22.0893 49.6823V69.5862C26.5666 68.1206 31.7551 66.6788 37.5892 65.4656V41.706L35.991 41.7124L39.916 32.6967L44.0066 41.6804L42.4093 41.6868V64.5458C47.8813 63.5922 53.8424 62.8617 60.2516 62.4987C60.6338 57.2023 60.8175 52.3602 60.834 49.0843C60.834 49.0779 60.834 49.0724 60.834 49.066C60.8605 43.5995 60.5871 40.6555 60.5871 40.6555C60.4043 40.437 60.2461 40.1984 60.1117 39.946C59.8219 39.402 59.6509 38.7867 59.6509 38.1257C59.6509 37.9172 59.6774 37.7152 59.7103 37.5149C59.7131 37.4976 59.7149 37.4793 59.7176 37.4619L57.6248 37.4537L57.6824 37.3248L63.81 23.8628L63.8118 23.8592V6.13208C63.8118 6.13208 37.8955 21.6384 8.76176 22.5783C8.76176 22.5783 2.50804 47.552 5.56084 76.3437C8.00199 75.0939 11.9627 73.2306 17.2692 71.2658Z" fill="#1A719D"/>
<path d="M22.0894 74.591V98.8726H37.5892V70.3195C31.4891 71.636 26.2704 73.1702 22.0894 74.591Z" fill="#1A719D"/>
<path d="M6.1781 81.3623C6.17718 81.3623 6.17627 81.3632 6.17627 81.3632C6.19456 81.4765 6.21375 81.5917 6.23387 81.7115C6.23844 81.7463 6.24393 81.7837 6.24941 81.8176C6.25033 81.8167 6.25124 81.8167 6.25215 81.8167C6.57033 83.6836 7.10061 86.2647 7.97193 89.4098L7.97284 89.4089C8.66953 92.5458 9.50061 95.7531 10.4624 98.8727H17.2711V76.3401C11.6912 78.4951 7.88415 80.437 6.1781 81.3623Z" fill="#1A719D"/>
<path d="M126.141 110.079C126.827 110.079 127.36 110.612 127.36 111.276C127.36 111.954 126.827 112.48 126.134 112.48C125.448 112.48 124.901 111.954 124.901 111.276C124.901 110.611 125.448 110.079 126.134 110.079H126.141ZM126.127 110.32C125.601 110.32 125.207 110.75 125.207 111.276C125.207 111.809 125.601 112.232 126.141 112.232C126.667 112.24 127.054 111.809 127.054 111.276C127.054 110.75 126.667 110.32 126.134 110.32H126.127ZM125.944 111.897H125.667V110.706C125.777 110.684 125.929 110.662 126.127 110.662C126.353 110.662 126.455 110.699 126.543 110.758C126.609 110.809 126.66 110.904 126.66 111.013C126.66 111.152 126.557 111.254 126.411 111.298V111.312C126.528 111.349 126.594 111.444 126.63 111.604C126.667 111.787 126.689 111.86 126.718 111.896H126.419C126.383 111.852 126.361 111.75 126.324 111.611C126.302 111.479 126.229 111.42 126.076 111.42H125.945V111.897H125.944ZM125.951 111.225H126.083C126.236 111.225 126.36 111.174 126.36 111.049C126.36 110.939 126.279 110.866 126.105 110.866C126.032 110.866 125.98 110.874 125.951 110.881V111.225Z" fill="#2B2C2B"/>
</svg>
