<svg xmlns="http://www.w3.org/2000/svg" width="187.009" height="41.659" viewBox="0 0 187.009 41.659"><defs><style>.a{fill:#ffcd0a;}.b{fill:#fff;}.c{fill:#ffcd05;}</style></defs><g transform="translate(0 0.002)"><path class="a" d="M48.2,18.24c0-5.415,4.153-9.069,9.516-9.069a8.319,8.319,0,0,1,6.466,2.6,2.623,2.623,0,0,1,.684,1.709,2.519,2.519,0,0,1-2.523,2.5,2.446,2.446,0,0,1-1.866-.841,3.632,3.632,0,0,0-2.76-1.288,4.165,4.165,0,0,0-4.127,4.39,4.165,4.165,0,0,0,4.127,4.39,3.632,3.632,0,0,0,2.76-1.288,2.447,2.447,0,0,1,1.866-.841,2.474,2.474,0,0,1,1.84,4.153,8.425,8.425,0,0,1-6.466,2.655C52.356,27.309,48.2,23.629,48.2,18.24Z" transform="translate(11.889 0.857)"/><path class="a" d="M62.292,23.779a2.4,2.4,0,0,1,2.392-2.392,2.3,2.3,0,0,1,1.209.316,8.019,8.019,0,0,0,4.127,1.13c1,0,1.945-.342,1.945-1.025s-.736-1.025-2.471-1.341c-2.891-.526-7.307-1.209-7.307-5.6,0-2.97,2.471-5.678,7.544-5.678A13.9,13.9,0,0,1,75.2,10.268a2.365,2.365,0,0,1-.972,4.521,2.779,2.779,0,0,1-1.052-.21,10.867,10.867,0,0,0-3.733-.92c-1.577,0-1.866.473-1.866.92,0,.684.71.92,2.576,1.236,2.892.5,7.176,1.341,7.176,5.389,0,3.864-2.865,6.1-7.57,6.1a12.517,12.517,0,0,1-6.2-1.42A2.372,2.372,0,0,1,62.292,23.779Z" transform="translate(15.338 0.864)"/><path class="a" d="M74.8,23.779a2.4,2.4,0,0,1,2.392-2.392A2.3,2.3,0,0,1,78.4,21.7a8.02,8.02,0,0,0,4.127,1.13c1,0,1.945-.342,1.945-1.025S83.733,20.782,82,20.467c-2.891-.526-7.307-1.209-7.307-5.6,0-2.97,2.471-5.678,7.544-5.678A13.9,13.9,0,0,1,87.7,10.268a2.365,2.365,0,0,1-.973,4.521,2.779,2.779,0,0,1-1.052-.21,10.867,10.867,0,0,0-3.733-.92c-1.577,0-1.866.473-1.866.92,0,.684.71.92,2.576,1.236,2.891.5,7.176,1.341,7.176,5.389,0,3.864-2.865,6.1-7.57,6.1a12.516,12.516,0,0,1-6.2-1.42,2.372,2.372,0,0,1-1.262-2.1Z" transform="translate(18.422 0.864)"/><path class="b" d="M88.1,24.594V11.845a2.655,2.655,0,1,1,5.31,0V24.594a2.655,2.655,0,1,1-5.31,0Z" transform="translate(21.729 0.864)"/><path class="b" d="M107.31,15.446v9.227c0,5.494-4.521,6.519-7.676,6.519a9.742,9.742,0,0,1-4.232-.92,1.97,1.97,0,0,1-1.1-1.735,1.941,1.941,0,0,1,1.945-1.945,1.759,1.759,0,0,1,.815.184,6.073,6.073,0,0,0,2.576.552,2.61,2.61,0,0,0,2.944-2.655v-.684A4.514,4.514,0,0,1,99,25.7c-3.049,0-5.573-2-5.573-6.335,0-4.232,2.444-6.335,5.573-6.335a4.465,4.465,0,0,1,3.575,1.656,2.449,2.449,0,0,1,2.366-1.6A2.373,2.373,0,0,1,107.31,15.446ZM102.578,20.7V18.022a2.817,2.817,0,0,0-1.945-.815,2.165,2.165,0,1,0,0,4.311,2.817,2.817,0,0,0,1.944-.815Z" transform="translate(23.045 1.811)"/><path class="b" d="M119.155,17.034v6.913a2.366,2.366,0,0,1-4.731,0V19.032a1.61,1.61,0,0,0-1.84-1.814,2.507,2.507,0,0,0-2.024,1v5.73a2.366,2.366,0,1,1-4.731,0v-8.49a2.381,2.381,0,0,1,2.366-2.471A2.407,2.407,0,0,1,110.56,14.8a5.61,5.61,0,0,1,4.364-1.761,3.78,3.78,0,0,1,4.232,4Z" transform="translate(26.102 1.8)"/><path class="b" d="M117.551,10.728a2.648,2.648,0,1,1,.775,1.879,2.655,2.655,0,0,1-.775-1.879Zm.289,14.431v-8.49a2.366,2.366,0,1,1,4.731,0v8.491a2.366,2.366,0,0,1-4.731,0Z" transform="translate(28.994 0.589)"/><path class="b" d="M132.452,24.928a2.023,2.023,0,0,1-1.6,1.945,6.855,6.855,0,0,1-1.551.158c-2.812,0-4.363-1.341-4.363-4V18.12h-.316a2.05,2.05,0,0,1,0-4.1h.316V12.652a2.366,2.366,0,1,1,4.731,0v1.367h.789a2.05,2.05,0,0,1,0,4.1h-.788v3.549a1.092,1.092,0,0,0,.946,1.183l.237.026A1.943,1.943,0,0,1,132.452,24.928Z" transform="translate(30.232 1.135)"/><path class="b" d="M137.958,13.029c3.733,0,6.6,2.681,6.6,5.809,0,1.787-1,2.313-2.812,2.313h-5.809a2.7,2.7,0,0,0,2.786,1.6,5.131,5.131,0,0,0,1.866-.368,1.72,1.72,0,0,1,.657-.131,1.789,1.789,0,0,1,1.787,1.787,1.832,1.832,0,0,1-1.157,1.656,11.111,11.111,0,0,1-3.759.657c-3.969,0-7.071-2.5-7.071-6.677a6.608,6.608,0,0,1,6.913-6.65Zm-2.076,5.126h4.18a1.943,1.943,0,0,0-2.1-1.524,1.975,1.975,0,0,0-2.077,1.524Z" transform="translate(32.322 1.81)"/><path class="b" d="M151.784,15.073a2.182,2.182,0,0,1-1.971,2.392,3.685,3.685,0,0,0-2.313.841v5.625a2.366,2.366,0,0,1-4.731,0V15.546a2.419,2.419,0,0,1,4.731-.763,3.092,3.092,0,0,1,1.236-1.446,2.215,2.215,0,0,1,1.025-.289,2.008,2.008,0,0,1,2.024,2.024Z" transform="translate(35.214 1.816)"/><g transform="translate(30.577 10.431)"><path class="b" d="M33.174,9.981a.951.951,0,0,0-.156.838,2.13,2.13,0,0,0,.156.292,4.663,4.663,0,0,0,1.091,1.052l.818.8c.058.1.117.175.175.273a3.47,3.47,0,0,1,0,3.428,2.717,2.717,0,0,1-.175.331l-.136.214.136-.1.156-.156a4.71,4.71,0,0,0,1.87-3.116,4.065,4.065,0,0,0-1.87-3.993l-.175-.1a4.812,4.812,0,0,0-.565-.195,1.175,1.175,0,0,0-1.324.429Z" transform="translate(-22.442 -9.493)"/><path class="b" d="M28.345,20.092a.6.6,0,0,0-.37,0l-.565.253a4.945,4.945,0,0,0-.7.545,12.206,12.206,0,0,0-1.227,1.324l-.954,1.266v3.954a.793.793,0,0,0,.954.136l.448-.39a5.082,5.082,0,0,0,.37-.526c.136-.214.273-.448.409-.662a24.747,24.747,0,0,0,1.266-2.4l.37-.915C28.89,21.163,28.851,20.248,28.345,20.092Z" transform="translate(-24.527 -6.885)"/></g><path class="b" d="M28.622,1.2A20.822,20.822,0,0,0,10.332,27.7a3.772,3.772,0,0,0,1.091,1.755,11.133,11.133,0,0,0,3.708,2.44,10.625,10.625,0,0,0,2.926.38,1.72,1.72,0,0,0,1.373-.6l8.857-10.27.838-.974a.592.592,0,0,0,.1-.136l.019-.039.136-.623a2.85,2.85,0,0,0-.136-.76l-.019-.058a5.343,5.343,0,0,0-.935-1.578c-1.266-1.519-3.389-2.551-4.947-.623-.643.721-9.037,10.089-9.076,9.972a16.87,16.87,0,0,1-.623-4.051,17.117,17.117,0,0,1,4.207-11.8A16.617,16.617,0,0,1,29.242,5.09l2.493.019a16.374,16.374,0,0,1,7.284,2.4l.195.117c.214.136.428.273.643.428-.214-.019-.429-.019-.643-.019h-.195A7.725,7.725,0,0,0,32.144,13.1l-.039.1-.37,1.539-.019.175a8.367,8.367,0,0,0,0,1.85l.019.175a8.834,8.834,0,0,0,.37,1.539,9.317,9.317,0,0,0,.545,1.188l-.545.6-.37.409-.019.019c-.409.448-.818.915-1.247,1.4l-1.227,1.4-.019.019c-.292.312-.6.682-.935,1.071-2.066,2.414-5.139,6.051-6.913,8.219a3.21,3.21,0,0,0-.7,1.634l-.232,1.84h0l-.29,2.318a2.045,2.045,0,0,0,1.114,2.1A20.829,20.829,0,1,0,28.622,1.2Zm6.053,11.626a5.338,5.338,0,0,1,4.285-2.435h.195a4.718,4.718,0,0,1,1.714.273l.175.078a6.281,6.281,0,0,1,1.071.565,5.527,5.527,0,0,1,1.5,7.576,5.33,5.33,0,0,1-2.571,2.084l-.175.058-1.714.292H38.96a5.324,5.324,0,0,1-2.785-.915,5.527,5.527,0,0,1-1.5-7.576ZM28.092,34.558c-1.032,1.6-2.337,1.188-2.96-.156a4.044,4.044,0,0,1-.214-3.545,48.546,48.546,0,0,1,3.311-4.577c.331-.409.643-.76.935-1.071l.019-.019L30.391,24a7.445,7.445,0,0,1,1.246-.876l.019-.019.37-.156c2.318-.838,2.3,2.941,0,7.693-.117.253-.234.487-.37.74l-.019.039c-.37.7-.779,1.422-1.246,2.142a2.508,2.508,0,0,1-.6.8l-.623.331A1.5,1.5,0,0,1,28.092,34.558Zm14.685-1.324a14.572,14.572,0,0,1-1.733,1.733l-.175.156-1.714,1.247-.195.117a15.27,15.27,0,0,1-1.753.954A16.624,16.624,0,0,1,31.676,38.9l-1.266.058c-.273,0-.565,0-.838-.019a7.57,7.57,0,0,0,.838-.76,6.168,6.168,0,0,0,.545-.662,3.7,3.7,0,0,0,.7-.156h.019l.37-.136c1.85-.837,2.941-3.1,3.856-5.2.74-1.694,1.87-5.707,2.551-7.946.058-.195.117-.37.156-.526a2.117,2.117,0,0,0,.351.019h.195a8.39,8.39,0,0,0,1.714-.175l.175-.039a7.715,7.715,0,0,0,5.512-5.22,16.285,16.285,0,0,1,.39,2.59,17.24,17.24,0,0,1-.467,5.473A16.865,16.865,0,0,1,42.778,33.233Z" transform="translate(2.348 -1.125)"/><path class="c" d="M1.956,31.071c1.012-.09,2.068-1.214,2.922-1.281C4.7,32.33,2.046,33.948,0,34.713a8.037,8.037,0,0,0,8.744.787,3.188,3.188,0,0,1-.225,1.394c3.956-.112,7.216-2.383,7.913-8.34-3.956,1.821-5.125-3.8-6.924-1.214-1.956,2.81-3.259,1.708-3.3.495a2.892,2.892,0,0,1,1.911-2.653,15.4,15.4,0,0,1,2.967-.562c-.157-.382-.27-.764-.4-1.169-5.957-.944-7.643,4.136-8.182,6.272a7.461,7.461,0,0,1-.539,1.349Z" transform="translate(0 4.353)"/></g></svg>