<svg width="128" height="128" viewBox="0 0 128 128" fill="none" xmlns="http://www.w3.org/2000/svg">
<rect width="128" height="128" fill="white"/>
<path d="M44.7364 81.0309H59.9563V94.3691H45.018C42.6628 93.3196 40.7044 91.8475 39.2961 90.0941C39.8338 87.2265 41.8947 83.4631 44.7364 81.0441V81.0309Z" fill="#6C53A3"/>
<path d="M45.6198 82.1572C43.5971 84.2438 41.6132 86.7782 40.9348 89.6456C42.1509 91.0793 43.7125 92.2055 45.4021 93.0123H58.2029V82.1572H45.6198Z" fill="#7860A9"/>
<path d="M42.1 86.6888C41.7034 87.252 40.9606 89.492 40.9224 89.6329C42.1384 91.0664 43.7001 92.1928 45.3897 92.9996H52.2124V87.188C48.833 87.1625 45.4666 86.9833 42.0872 86.6758L42.1 86.6888Z" fill="#9178B7"/>
<path d="M44.6595 91.5402C46.2339 92.0653 46.9764 93.0761 47.2068 94.3689H41.7153C42.0866 93.2555 43.1235 91.8732 44.6595 91.5402Z" fill="#60459B"/>
<path d="M44.6341 92.1288C43.7765 92.3594 43.0469 93.025 42.5862 93.8056H44.6598V92.1418L44.6341 92.1288Z" fill="#6C53A3"/>
<path d="M50.0866 91.2073C52.1987 91.7962 53.2229 93.1917 53.4788 94.369H46.1438C46.6303 93.1272 48.1025 91.4889 50.0866 91.2073Z" fill="#60459B"/>
<path d="M50.0485 91.7834C48.8964 91.9883 47.7572 92.8074 47.0789 93.8059H50.087V91.7962L50.0485 91.7834Z" fill="#6C53A3"/>
<path d="M78.2229 81.0309H63.0029V94.3691H77.9413C80.2965 93.3196 82.2547 91.8475 83.6631 90.0941C83.1259 87.2265 81.0648 83.4631 78.2229 81.0441V81.0309V81.0309Z" fill="#6C53A3"/>
<path d="M77.3522 82.1572C79.3753 84.2438 81.3592 86.7782 82.0374 89.6456C80.821 91.0793 79.2594 92.2055 77.57 93.0123H64.7695V82.1572H77.3522Z" fill="#7860A9"/>
<path d="M80.86 86.6888C81.2566 87.252 81.9989 89.492 82.0374 89.6329C80.8211 91.0664 79.2599 92.1928 77.5701 92.9996H70.7473V87.188C74.1265 87.1625 77.4934 86.9833 80.8728 86.6758L80.86 86.6888Z" fill="#9178B7"/>
<path d="M78.3125 91.5402C76.7381 92.0653 75.9958 93.0761 75.7654 94.3689H81.2566C80.8861 93.2555 79.8489 91.8732 78.3125 91.5402Z" fill="#60459B"/>
<path d="M78.3385 92.1288C79.1958 92.3594 79.9256 93.025 80.3864 93.8056H78.3127V92.1418L78.3385 92.1288Z" fill="#6C53A3"/>
<path d="M72.8855 91.2073C70.773 91.7962 69.749 93.1917 69.4932 94.369H76.8277C76.3412 93.1272 74.8697 91.4889 72.8855 91.2073Z" fill="#60459B"/>
<path d="M72.9232 91.7834C74.0754 91.9883 75.2147 92.8074 75.8931 93.8059H72.885V91.7962L72.9232 91.7834Z" fill="#6C53A3"/>
<path d="M20.7605 85.1397C20.8629 87.5716 21.4004 89.4663 22.4756 90.6441C24.1526 90.5158 25.5606 88.6472 26.2008 87.0599C25.2278 85.3703 23.3333 84.6022 20.7605 85.1397Z" fill="#60459B"/>
<path d="M21.6184 85.8182C21.6569 87.2392 22.0409 88.6857 22.8088 89.7608L23.4617 85.9207C22.8859 85.767 22.2458 85.7543 21.6184 85.8182Z" fill="#6C53A3"/>
<path d="M24.9847 86.4328C25.1511 88.6211 25.4327 90.5288 26.7897 92.4872C29.2471 91.9623 31.18 90.5925 31.9866 88.4042C30.7705 85.6519 27.9031 85.2679 24.9717 86.4328H24.9847V86.4328Z" fill="#60459B"/>
<path d="M27.1481 91.5659L28.7995 86.7145C27.865 86.5224 26.828 86.6629 25.8296 86.9834C25.9833 88.6473 26.2648 90.1067 27.1481 91.5529V91.5659Z" fill="#6C53A3"/>
<path d="M33.0498 88.212C33.4724 90.6951 35.8148 91.9112 36.9924 91.8474C37.5299 90.9387 38.0549 89.7608 38.0676 88.3399L37.0564 87.4823C35.4948 87.2005 33.8307 87.3159 33.0369 88.212H33.0498Z" fill="#60459B"/>
<path d="M36.5694 91.028C37.0429 90.3369 37.3373 89.2617 37.3885 88.2503L35.7117 87.9814L36.5694 91.028Z" fill="#6C53A3"/>
<path d="M38.0673 54.9816V88.3399C32.2942 89.057 25.5739 88.8264 20.761 85.1269C20.8504 82.0164 21.145 78.9828 21.7082 76.0901C22.7451 70.8544 24.7163 66.08 28.134 62.1502C31.1423 58.6941 34.1632 57.0427 38.0673 54.9689V54.9816Z" fill="#6C53A3"/>
<path d="M22.3997 84.3591C25.4207 86.6759 32.6401 87.3927 36.442 86.919V57.6825C26.6366 62.8924 22.7455 72.5054 22.3997 84.3591Z" fill="#9178B7"/>
<path d="M22.3997 84.3591C23.9231 85.5367 26.5342 86.2918 29.2354 86.7014C29.632 79.2644 29.5807 68.0768 27.9169 65.1067C24.2684 70.2654 22.63 76.8578 22.3997 84.3591Z" fill="#A58DC2"/>
<path d="M29.2222 79.3921C30.4895 79.3921 31.5134 80.4163 31.5134 81.6836C31.5134 82.9509 30.4895 83.9748 29.2222 83.9748C27.9549 83.9748 26.9309 82.9509 26.9309 81.6836C26.9309 80.4163 27.9549 79.3921 29.2222 79.3921Z" fill="#9178B7"/>
<path d="M34.7012 28.9706C34.0355 24.6312 34.7649 22.3785 35.6611 18.4229C38.4134 20.7141 40.1797 22.3655 43.5334 24.0553C44.199 19.8693 45.6839 15.8883 47.8472 12.189L49.1273 10C54.0428 13.7124 58.2413 16.6821 61.48 21.5847C64.7313 16.6821 68.917 13.6995 73.8325 10L75.1126 12.189C77.2759 15.8883 78.7606 19.8693 79.4265 24.0553C82.7799 22.3655 84.5467 20.7141 87.2984 18.4229C88.1947 22.3655 88.9245 24.6185 88.2587 28.9706L94.3388 30.6475C93.123 46.5075 91.8944 60.0122 90.358 75.8722C90.1404 78.0613 89.9225 80.2498 89.6926 82.4389C89.6284 83.066 88.8601 84.1924 85.6091 84.2309C69.762 85.2936 53.1721 85.2936 37.325 84.2309C34.0865 84.1924 33.3184 83.066 33.2417 82.4389C33.0109 80.2116 32.7807 77.9841 32.5631 75.757C32.4736 74.8483 32.384 73.939 32.2943 73.0305C30.963 58.8985 29.67 44.7922 28.5823 30.6475L34.6622 28.9706H34.7012V28.9706Z" fill="#6C53A3"/>
<path d="M49.7927 13.3282C47.1814 17.7828 45.7222 22.4935 45.4403 27.3451C42.7396 26.3336 39.6672 24.6825 37.0436 22.5065C36.5057 24.8744 36.6211 27.9593 37.3507 30.6478C35.1362 31.1595 33.0623 31.6845 31.0015 32.2859C32.1153 46.8404 33.1648 61.3947 34.5857 75.9103C34.7267 77.357 35.0338 80.4548 35.1874 81.9012C35.7634 82.2211 36.9667 82.2211 37.4659 82.2468C53.4027 83.3092 69.5444 83.3092 85.4812 82.2468C85.9804 82.2081 87.1837 82.2081 87.7594 81.9012C87.9133 80.4935 88.2206 77.3187 88.3611 75.9103C89.7821 61.3817 90.8317 46.8274 91.9454 32.2859C89.8843 31.6845 87.8107 31.1595 85.5961 30.6478C86.3257 27.9593 86.4411 24.8744 85.9034 22.5065C83.2919 24.6825 80.2071 26.3336 77.5065 27.3451C77.2249 22.4935 75.7655 17.7828 73.1541 13.3282C67.8163 17.3605 64.3347 20.2789 61.4675 26.1288C58.5871 20.2789 55.1182 17.3605 49.7674 13.3282H49.7927Z" fill="#9178B7"/>
<path d="M49.7927 13.3282C50.1895 19.8054 51.8153 26.9865 54.8617 29.9818C50.7784 29.5338 48.6151 29.0601 45.4403 27.345C42.7396 26.3336 39.6672 24.6825 37.0436 22.5064C38.4644 26.7688 39.8339 29.8154 42.6373 32.7851C40.2564 32.7338 38.8869 31.9532 37.3507 30.6477C35.1362 31.1594 33.0623 31.6844 31.0015 32.2858C32.1153 46.8404 33.1648 61.3947 34.5857 75.9102C34.7267 77.3569 35.0338 80.4547 35.1874 81.9012C35.7634 82.221 36.9667 82.221 37.4659 82.2468C45.4281 82.7845 53.4539 83.0406 61.4798 83.0406V74.3623C49.1145 75.3343 37.786 55.8264 50.7914 43.0002L48.2058 44.4339C47.8857 42.373 48.5384 39.8004 49.3834 37.7136C51.0857 33.6558 55.5788 30.635 61.4798 29.9308V26.1162C58.5999 20.2664 55.1308 17.3477 49.7802 13.3157L49.7927 13.3282Z" fill="#A58DC2"/>
<path d="M80.3095 32.7854C83.0997 29.8157 84.4822 26.7691 85.9032 22.5065C86.4409 24.8747 86.3254 27.9595 85.5958 30.6478C84.0599 31.9535 82.6902 32.7341 80.3095 32.7854ZM75.6118 31.5823C76.9943 31.5823 78.1204 32.7086 78.1204 34.0911C78.1204 35.4736 76.9943 36.6 75.6118 36.6C74.2293 36.6 73.1027 35.4736 73.1027 34.0911C73.1027 32.7086 74.2293 31.5823 75.6118 31.5823ZM84.7513 37.2272C85.7115 37.2272 86.4923 38.008 86.4923 38.968C86.4923 39.9282 85.7115 40.709 84.7513 40.709C83.7911 40.709 83.0102 39.9282 83.0102 38.968C83.0102 38.008 83.7911 37.2272 84.7513 37.2272ZM68.0974 29.9821C71.157 26.9868 72.7826 19.8057 73.1669 13.3285C75.7779 17.7831 77.2372 22.4937 77.5188 27.3451C74.3442 29.0604 72.1809 29.5341 68.0974 29.9821Z" fill="#7860A9"/>
<path d="M38.758 35.2174C41.0367 35.2174 42.88 37.0607 42.88 39.3392C42.88 41.6177 41.0367 43.4609 38.758 43.4609C36.4795 43.4609 34.6362 41.6177 34.6362 39.3392C34.6362 37.0607 36.4795 35.2174 38.758 35.2174ZM36.0954 47.8643C37.0044 47.8643 37.7468 48.6068 37.7468 49.5156C37.7468 50.4246 37.0044 51.1669 36.0954 51.1669C35.1867 51.1669 34.4443 50.4246 34.4443 49.5156C34.4443 48.6068 35.1867 47.8643 36.0954 47.8643Z" fill="#9178B7"/>
<path d="M61.7484 37.4705C71.5541 37.4705 79.5035 45.4196 79.5035 55.2248C79.5035 65.0301 71.5541 72.9795 61.7484 72.9795C51.9433 72.9795 43.9941 65.0299 43.9941 55.2248C43.9941 45.4196 51.9433 37.4705 61.7484 37.4705Z" fill="#D3E8EF"/>
<path d="M44.4546 51.1797C46.0035 44.5106 51.3286 39.275 58.049 37.8543C65.3839 37.2911 71.2977 42.424 71.2977 49.4004C71.2977 56.4279 65.2813 62.6619 57.8696 63.3146C50.4581 63.9675 44.4419 58.8088 44.4419 51.7814C44.4419 51.5765 44.4419 51.3718 44.4546 51.167V51.1797Z" fill="white"/>
<path d="M67.2014 48.4149C72.7307 48.4149 77.2112 52.895 77.2112 58.4249C77.2112 63.9547 72.7307 68.435 67.2014 68.435C61.6712 68.435 57.1912 63.9547 57.1912 58.4249C57.1912 52.895 61.6712 48.4149 67.2014 48.4149Z" fill="#EA5064"/>
<path d="M67.2017 48.415C68.6612 48.415 70.0437 48.7221 71.298 49.2853V49.4007C71.298 56.2489 65.5889 62.3421 58.4205 63.2509C57.6267 61.8172 57.179 60.166 57.179 58.4123C57.179 52.8823 61.659 48.4022 67.1888 48.4022L67.2017 48.415Z" fill="#EB6377"/>
<path d="M67.2012 51.9224C70.7855 51.9224 73.7039 54.828 73.7039 58.4251C73.7039 62.0093 70.7982 64.9275 67.2012 64.9275C63.6169 64.9275 60.6982 62.0221 60.6982 58.4251C60.6982 54.8408 63.6039 51.9224 67.2012 51.9224Z" fill="#232323"/>
<path d="M67.2012 51.9224C68.5195 51.9224 69.7483 52.3191 70.7722 52.9848C69.5307 57.145 66.2284 60.6523 62.0038 62.3294C61.1847 61.2413 60.6982 59.8843 60.6982 58.4251C60.6982 54.8408 63.6039 51.9224 67.2012 51.9224Z" fill="#333332"/>
<path d="M60.1094 50.9237C62.375 50.9237 64.2052 52.7542 64.2052 55.02C64.2052 57.2857 62.375 59.1162 60.1094 59.1162C57.8437 59.1162 56.0132 57.2857 56.0132 55.02C56.0132 52.7542 57.8437 50.9237 60.1094 50.9237Z" fill="white"/>
<path d="M40.8574 63.3531C45.9009 60.5624 53.5172 65.4397 52.9541 73.3249C48.1282 71.8272 42.931 67.283 40.8574 63.3531Z" fill="#6C53A3"/>
<path d="M40.8574 63.353C45.4399 63.4427 50.5219 66.0413 52.9541 73.3248C47.181 72.659 41.8174 68.2556 40.8574 63.353Z" fill="#A58DC2"/>
<path d="M43.2515 69.9457C43.9298 69.7151 47.0789 69.7793 47.3347 70.1246C47.6421 70.5341 46.797 72.6849 45.914 74.0674C44.7491 73.1327 43.8019 71.8529 43.2515 69.9457Z" fill="#7860A9"/>
<path d="M42.3298 69.1774C43.0084 68.947 46.1572 69.011 46.4133 69.3563C46.7204 69.7663 45.8756 71.9164 44.9924 73.2992C43.8275 72.3649 42.8803 71.0846 42.3298 69.1774Z" fill="white"/>
<path d="M43.2646 68.0767C43.482 72.5567 49.3063 76.8701 54.849 75.2573C55.1564 76.5505 54.2601 77.3184 53.3641 77.5105C48.3336 77.9588 43.495 74.7835 41.8821 70.7135C41.4339 69.5996 41.9588 68.2301 43.2646 68.0892V68.0767Z" fill="#6C53A3"/>
<path d="M42.3174 76.4612C43.6997 79.0853 45.8759 80.3013 48.2696 80.7109C44.8647 82.234 41.8564 80.2116 42.3174 76.4612Z" fill="#6C53A3"/>
<path d="M44.6086 77.1013C47.3352 78.6245 49.9465 79.124 52.9418 78.8291C50.7655 80.3016 46.4519 80.455 44.6086 77.1013Z" fill="#9178B7"/>
<path d="M67.8798 32.4267C62.3753 22.9287 47.9237 28.4586 49.3827 39.1343C53.0052 33.1436 59.9814 31.2106 67.8798 32.4267Z" fill="#60459B"/>
<path d="M67.8808 32.4268C64.77 27.0632 58.2288 26.7176 53.8637 29.6745C53.8382 30.9163 54.2223 31.8251 54.8752 32.5549C58.4208 30.8266 63.0547 30.1355 67.8933 32.4268H67.8808Z" fill="#6C53A3"/>
<path d="M96.6562 68.5759C102.417 68.5759 107.165 73.2094 107.165 78.9957C107.165 84.7816 102.429 89.4151 96.6562 89.4151C90.8956 89.4151 86.1465 84.7816 86.1465 78.9957C86.1465 73.2097 90.8829 68.5759 96.6562 68.5759Z" fill="#6C53A3"/>
<path d="M96.656 70.0991C101.61 70.0991 105.629 74.0802 105.629 78.9828C105.629 83.8856 101.61 87.8662 96.656 87.8662C91.7019 87.8662 87.6826 83.8856 87.6826 78.9828C87.6826 74.08 91.7019 70.0991 96.656 70.0991Z" fill="#9178B7"/>
<path d="M96.6561 70.0991C100.176 70.0991 103.223 72.109 104.695 75.0279C105.015 79.6614 99.3569 83.079 95.5937 81.4791C92.803 79.9682 90.8955 77.0373 90.8955 73.6706C90.8955 73.1202 90.9472 72.57 91.0494 72.045C92.5853 70.8287 94.5308 70.0991 96.6431 70.0991H96.6561V70.0991Z" fill="#A58DC2"/>
<path d="M92.9947 77.6131C92.5724 76.3335 97.3466 74.7331 97.7821 76.0134L102.505 90.1837C102.928 91.4637 98.1533 93.0636 97.7183 91.784L92.9947 77.6131Z" fill="#2C313A"/>
<path d="M99.8433 76.1796C97.9743 77.3314 96.4124 78.4708 95.312 80.5829C96.9117 82.5286 99.024 83.6038 101.328 83.3094C103.21 80.9542 102.224 78.2404 99.8301 76.1796H99.8433V76.1796Z" fill="#60459B"/>
<path d="M101.303 79.405C101.021 78.5859 100.522 77.8306 99.8685 77.0883C98.4348 78.0098 97.2449 79.008 96.3484 80.4547C97.3471 80.5569 98.8955 80.2883 101.302 79.392V79.405H101.303Z" fill="#6C53A3"/>
<path d="M101.648 81.8516C99.7794 83.0037 98.2171 84.1431 97.1162 86.2549C98.7163 88.2008 100.829 89.2758 103.133 88.9817C105.014 86.6264 104.028 83.9127 101.635 81.8516H101.648Z" fill="#60459B"/>
<path d="M103.108 84.8581C102.826 84.0391 102.327 83.2837 101.674 82.5414C100.24 83.4627 99.0496 84.4616 98.1536 85.9076C99.1522 86.01 100.701 85.7414 103.108 84.8449V84.8581H103.108Z" fill="#6C53A3"/>
<path d="M91.8813 82.4146C93.6608 81.9661 95.2477 81.6849 97.1554 82.2609C97.3858 84.3475 96.8101 86.242 95.299 87.458C92.7903 87.2279 91.7409 85.0516 91.8945 82.4275L91.8813 82.4146Z" fill="#60459B"/>
<path d="M92.9691 84.9348C92.6359 84.2945 92.4824 83.5521 92.4187 82.7333C93.8012 82.413 95.094 82.2725 96.489 82.5798C95.9643 83.2323 94.9019 84.0131 92.9817 84.9348H92.9691Z" fill="#6C53A3"/>
<path d="M88.31 44.0499C78.8243 44.5876 71.5667 52.7159 72.1039 62.2012C72.6416 71.6865 80.7704 78.9443 90.2555 78.4069C99.7408 77.8692 106.999 69.7406 106.461 60.2555C105.923 50.7702 97.7953 43.5122 88.31 44.0499Z" fill="#3A404D"/>
<path d="M88.4381 46.1747C80.1302 46.6482 73.7684 53.7656 74.2424 62.0858C74.7159 70.3935 81.8332 76.7553 90.1532 76.2815C98.4611 75.8078 104.823 68.6909 104.349 60.3707C103.875 52.063 96.7581 45.701 88.4381 46.1747Z" fill="#D3E8EF"/>
<path d="M100.752 68.6909C102.288 66.3359 103.12 63.481 102.954 60.4477C102.608 54.444 98.4485 49.5541 92.9565 48.0437C92.5083 53.2279 92.0475 58.3356 91.5613 63.5707C93.4045 64.3008 98.1409 66.656 100.765 68.6912H100.752V68.6909Z" fill="white"/>
<path d="M88.2203 47.8515C80.9876 48.2612 75.4583 54.4566 75.8806 61.6889C75.9443 62.7131 76.1109 63.6988 76.3925 64.633C76.3668 64.4281 76.3541 64.211 76.3409 63.9931C75.8674 55.6087 82.2808 48.4274 90.6652 47.9412H90.729C89.9224 47.8387 89.0776 47.8005 88.2328 47.8515H88.2203V47.8515Z" fill="white"/>
<path d="M76.3789 69.0239C76.6605 69.4847 76.9551 69.9327 77.2751 70.355L81.7167 64.1981L91.9576 68.461L97.8971 56.1977L103.849 57.337C103.696 56.7739 103.517 56.2234 103.312 55.6987L97.0521 54.4951L91.228 66.5278L81.205 62.355L76.3791 69.0369V69.0239H76.3789Z" fill="#989898"/>
<path d="M81.295 60.1657C83.0101 60.0633 84.4696 61.3818 84.572 63.0842C84.6742 64.799 83.3562 66.2587 81.6536 66.3611C79.9385 66.4638 78.4791 65.145 78.3762 63.4427C78.274 61.7274 79.5927 60.2682 81.295 60.1657Z" fill="#3BB984"/>
<path d="M97.309 52.2422C99.024 52.1397 100.483 53.4582 100.586 55.1606C100.688 56.8761 99.3701 58.3353 97.6675 58.4378C95.9524 58.54 94.493 57.2215 94.3901 55.5191C94.2879 53.8038 95.6064 52.3446 97.309 52.2422Z" fill="#EA5064"/>
<path d="M91.4201 64.3902C93.1351 64.288 94.5941 65.6061 94.697 67.3086C94.7992 69.0239 93.4812 70.4831 91.7786 70.5856C90.0631 70.688 88.6041 69.3697 88.5012 67.6672C88.399 65.9516 89.7175 64.4924 91.4201 64.3902Z" fill="#F6893F"/>
<path d="M24.2681 111.791C24.2681 112.264 24.1657 112.636 23.9611 112.879C23.7562 113.122 23.4361 113.25 22.9881 113.25C22.5531 113.25 22.2328 113.122 22.0281 112.879C21.8232 112.636 21.7208 112.264 21.7208 111.791V110.126C21.7208 109.653 21.8232 109.282 22.0281 109.039C22.2328 108.795 22.5531 108.667 22.9881 108.667C23.4361 108.667 23.7562 108.795 23.9611 109.039C24.1657 109.282 24.2681 109.653 24.2681 110.126V111.791ZM26.406 111.791V110.114C26.406 109.653 26.3418 109.23 26.2011 108.808C26.0732 108.398 25.8683 108.04 25.5867 107.733C25.3051 107.425 24.9468 107.182 24.5243 107.003C24.1017 106.824 23.5898 106.735 22.9881 106.735C22.3994 106.735 21.8874 106.824 21.4522 107.003C21.0297 107.182 20.6714 107.425 20.3898 107.733C20.1082 108.04 19.9033 108.398 19.7753 108.808C19.6472 109.218 19.5702 109.653 19.5702 110.114V111.791C19.5702 112.251 19.6344 112.687 19.7753 113.096C19.9033 113.506 20.1082 113.864 20.3898 114.172C20.6714 114.479 21.0297 114.722 21.4522 114.901C21.8745 115.08 22.3864 115.17 22.9881 115.17C23.577 115.17 24.089 115.08 24.5243 114.901C24.9468 114.722 25.3051 114.479 25.5867 114.172C25.8683 113.864 26.0732 113.506 26.2011 113.096C26.329 112.687 26.406 112.252 26.406 111.791ZM35.2254 114.108V109.73C35.2254 109.282 35.1742 108.872 35.0847 108.513C34.995 108.142 34.8416 107.822 34.6367 107.566C34.4191 107.311 34.1502 107.106 33.8174 106.952C33.4846 106.798 33.0496 106.735 32.5501 106.735C32.0381 106.735 31.5774 106.812 31.1806 106.952C30.7838 107.106 30.451 107.311 30.1692 107.566C30.067 107.413 29.939 107.272 29.7981 107.17C29.6445 107.054 29.4908 106.964 29.3116 106.913C29.1325 106.863 28.9661 106.837 28.7997 106.837C28.4923 106.837 28.2365 106.901 28.0316 107.042C27.8267 107.182 27.7245 107.4 27.7245 107.708C27.7245 107.861 27.75 107.976 27.8012 108.079C27.8524 108.181 27.9291 108.258 28.0061 108.321C28.134 108.437 28.2492 108.552 28.3389 108.655C28.4284 108.757 28.4796 108.949 28.4796 109.23V114.108C28.4796 114.402 28.582 114.658 28.7869 114.863C28.9916 115.068 29.2474 115.17 29.555 115.17C29.8493 115.17 30.1052 115.068 30.3101 114.863C30.5147 114.658 30.6174 114.402 30.6174 114.108V109.398C30.7708 109.192 30.9502 109.039 31.1679 108.924C31.3853 108.809 31.6414 108.744 31.9357 108.744C32.1661 108.744 32.3582 108.783 32.5119 108.847C32.6653 108.91 32.768 109 32.8574 109.116C32.9342 109.23 32.9981 109.359 33.0239 109.512C33.0496 109.666 33.0751 109.819 33.0751 109.986V114.108C33.0751 114.402 33.1775 114.658 33.3824 114.863C33.587 115.068 33.8432 115.17 34.1375 115.17C34.4318 115.17 34.6879 115.068 34.9053 114.863C35.1232 114.658 35.2254 114.402 35.2254 114.108ZM43.0211 112.559C43.0211 112.124 42.9572 111.765 42.829 111.483C42.7013 111.202 42.5347 110.972 42.3298 110.792C42.1251 110.614 41.8947 110.473 41.6259 110.383C41.37 110.293 41.1012 110.203 40.8451 110.139C40.5762 110.088 40.3329 110.037 40.1027 109.999C39.8723 109.961 39.6672 109.909 39.4881 109.845C39.3089 109.781 39.1682 109.704 39.0658 109.602C38.9634 109.499 38.9121 109.359 38.9121 109.179C38.9121 108.987 39.0016 108.834 39.1682 108.693C39.3344 108.565 39.6162 108.501 39.9873 108.501C40.2562 108.501 40.5123 108.527 40.7426 108.578C40.973 108.629 41.2419 108.706 41.5492 108.808C41.7923 108.885 42.0227 108.859 42.2276 108.744C42.4452 108.629 42.5859 108.45 42.6501 108.22C42.7395 107.989 42.7268 107.759 42.6116 107.541C42.4962 107.323 42.317 107.17 42.0739 107.093C41.7666 106.99 41.4467 106.901 41.1139 106.837C40.7811 106.773 40.3586 106.747 39.8466 106.747C39.4498 106.747 39.0658 106.798 38.7073 106.913C38.3489 107.029 38.0418 107.182 37.76 107.4C37.4912 107.618 37.2738 107.886 37.1071 108.207C36.9537 108.527 36.8642 108.898 36.8642 109.32C36.8642 109.717 36.9152 110.037 37.0177 110.306C37.1201 110.575 37.2608 110.793 37.4399 110.959C37.6191 111.138 37.8112 111.266 38.0418 111.369C38.2722 111.458 38.5026 111.548 38.7457 111.612C39.0146 111.688 39.2834 111.74 39.552 111.791C39.8209 111.829 40.0642 111.881 40.2689 111.944C40.4738 112.008 40.6402 112.098 40.7811 112.2C40.909 112.316 40.973 112.469 40.973 112.674C40.973 112.917 40.8578 113.109 40.6274 113.25C40.3968 113.39 40.0897 113.455 39.6802 113.455C39.2704 113.455 38.9376 113.429 38.7073 113.365C38.4641 113.301 38.2335 113.237 38.0031 113.148C37.7857 113.058 37.5554 113.071 37.3248 113.173C37.0944 113.275 36.928 113.455 36.8513 113.724C36.7873 113.941 36.8 114.172 36.8897 114.402C36.9792 114.633 37.1458 114.786 37.3762 114.876C37.6448 114.965 37.9649 115.055 38.3105 115.119C38.656 115.183 39.1043 115.209 39.6672 115.209C40.0897 115.209 40.5123 115.157 40.909 115.068C41.3186 114.978 41.6769 114.825 41.9842 114.607C42.2915 114.39 42.5347 114.121 42.7268 113.801C42.9187 113.467 43.0084 113.071 43.0084 112.598L43.0211 112.559ZM49.5496 114.133C49.5496 113.864 49.4599 113.647 49.2807 113.467C49.1016 113.288 48.8837 113.199 48.6151 113.199H48.3077C47.7958 113.199 47.463 113.058 47.2965 112.777C47.1301 112.495 47.0404 112.021 47.0404 111.382V108.603H48.2565C48.4997 108.603 48.7048 108.513 48.8709 108.347C49.0376 108.168 49.127 107.963 49.127 107.72C49.127 107.477 49.0376 107.272 48.8709 107.106C48.7048 106.939 48.4997 106.85 48.2565 106.85H47.0404V105.774C47.0404 105.48 46.938 105.224 46.7333 105.006C46.5285 104.789 46.2726 104.686 45.978 104.686C45.6837 104.686 45.4276 104.789 45.2099 105.006C44.9923 105.224 44.8901 105.467 44.8901 105.774V106.85H44.634C44.3909 106.85 44.186 106.939 44.0196 107.106C43.8532 107.272 43.7635 107.477 43.7635 107.72C43.7635 107.963 43.8532 108.168 44.0196 108.347C44.186 108.526 44.3909 108.603 44.634 108.603H44.8901V111.407C44.8901 111.957 44.9413 112.456 45.0563 112.917C45.1715 113.378 45.3509 113.762 45.594 114.082C45.8373 114.402 46.1572 114.658 46.5542 114.824C46.951 115.004 47.4375 115.08 48.0004 115.08H48.6021C48.8709 115.08 49.0886 114.991 49.2677 114.798C49.4471 114.62 49.5366 114.389 49.5366 114.12L49.5496 114.133ZM55.092 109.819V110.025H52.6344V109.819C52.6344 109.359 52.7368 109.013 52.9417 108.77C53.1466 108.527 53.4664 108.398 53.8889 108.398C54.3112 108.398 54.6185 108.527 54.8104 108.77C55.0023 109.014 55.092 109.359 55.092 109.819ZM57.1529 110.869V110.191C57.1529 109.73 57.0889 109.295 56.9738 108.885C56.8458 108.463 56.6667 108.104 56.3976 107.784C56.1417 107.464 55.7961 107.221 55.3736 107.029C54.9514 106.85 54.4394 106.747 53.8377 106.747C53.2615 106.747 52.7496 106.837 52.34 107.029C51.9175 107.221 51.572 107.477 51.3031 107.797C51.0343 108.117 50.8296 108.488 50.6887 108.91C50.5605 109.333 50.4838 109.781 50.4838 110.242V111.714C50.4838 112.174 50.548 112.623 50.663 113.045C50.7784 113.467 50.9703 113.826 51.2391 114.146C51.5078 114.466 51.8536 114.722 52.2761 114.914C52.6983 115.106 53.2233 115.195 53.8247 115.195C54.209 115.195 54.6058 115.157 55.0283 115.093C55.4506 115.029 55.8731 114.888 56.3209 114.683C56.5258 114.594 56.6667 114.466 56.7434 114.274C56.8328 114.095 56.8328 113.877 56.7561 113.634C56.6922 113.403 56.5515 113.237 56.3466 113.122C56.1417 113.019 55.9368 113.006 55.7194 113.096C55.4506 113.211 55.1817 113.301 54.9129 113.352C54.6568 113.416 54.3242 113.442 53.9402 113.442C53.4919 113.442 53.1591 113.314 52.9545 113.045C52.7368 112.777 52.6344 112.405 52.6344 111.931V111.624H56.4233C56.6282 111.624 56.7946 111.547 56.9353 111.406C57.0762 111.253 57.1529 111.074 57.1529 110.869ZM64.4879 108.143C64.5516 107.925 64.5516 107.72 64.5006 107.502C64.4364 107.285 64.3087 107.119 64.1168 106.99C64.0014 106.913 63.8607 106.863 63.6943 106.812C63.5279 106.773 63.3487 106.748 63.1311 106.748C63.0032 106.748 62.8495 106.761 62.6701 106.773C62.491 106.798 62.2991 106.837 62.1072 106.913C61.915 106.977 61.7104 107.08 61.5055 107.221C61.3006 107.349 61.1085 107.527 60.9293 107.759C60.8269 107.553 60.6735 107.374 60.4941 107.221C60.3149 107.067 60.0716 106.952 59.7774 106.875C59.7262 106.85 59.662 106.85 59.5981 106.85H59.4446C59.1118 106.85 58.8557 106.913 58.6636 107.054C58.4717 107.196 58.382 107.413 58.382 107.72C58.382 107.874 58.4077 107.989 58.4589 108.091C58.5101 108.193 58.5869 108.271 58.6636 108.335C58.7917 108.45 58.9069 108.565 58.9964 108.668C59.0861 108.77 59.1373 108.962 59.1373 109.244V114.121C59.1373 114.415 59.2397 114.671 59.4446 114.876C59.6493 115.081 59.9054 115.183 60.2125 115.183C60.5071 115.183 60.7632 115.081 60.9678 114.876C61.1727 114.671 61.2751 114.415 61.2751 114.121V109.704C61.3646 109.371 61.544 109.128 61.7871 108.987C62.0305 108.847 62.3248 108.782 62.6319 108.782C62.8495 108.782 62.9902 108.782 63.0672 108.795C63.1439 108.808 63.2336 108.821 63.3105 108.847C63.6176 108.91 63.8737 108.872 64.0784 108.719C64.283 108.565 64.4116 108.373 64.4881 108.13V108.143H64.4879ZM17.5478 104.392C17.5478 104.124 17.4454 103.88 17.2535 103.675C17.0613 103.471 16.8055 103.368 16.5111 103.368C16.306 103.368 16.1141 103.406 15.935 103.483C15.7558 103.56 15.6021 103.713 15.4869 103.956L12.3894 110.255L9.32982 104.021C9.21463 103.79 9.07371 103.624 8.92028 103.522C8.76662 103.419 8.54899 103.368 8.2674 103.368C7.9858 103.368 7.74244 103.458 7.53779 103.65C7.33291 103.841 7.23047 104.085 7.23047 104.379V114.223C7.23047 114.492 7.33291 114.735 7.52505 114.927C7.71695 115.119 7.9603 115.221 8.22892 115.221C8.49777 115.221 8.7409 115.119 8.93303 114.927C9.12517 114.735 9.22738 114.492 9.22738 114.223V108.181L11.3907 112.687C11.4931 112.904 11.634 113.058 11.8132 113.161C11.9924 113.263 12.1715 113.314 12.3764 113.314C12.594 113.314 12.7732 113.263 12.9526 113.148C13.119 113.032 13.2597 112.879 13.3621 112.661L15.5254 108.168V114.197C15.5254 114.466 15.6279 114.709 15.8198 114.914C16.0119 115.119 16.255 115.221 16.5366 115.221C16.8055 115.221 17.0488 115.119 17.2407 114.914C17.4326 114.709 17.5351 114.479 17.5351 114.197V104.379L17.5478 104.392Z" fill="#3A404D"/>
<path d="M77.826 114.12V109.742C77.826 109.294 77.7747 108.885 77.6853 108.527C77.5956 108.155 77.4417 107.835 77.237 107.579C77.0194 107.323 76.7503 107.119 76.4177 106.965C76.0849 106.811 75.6497 106.747 75.1507 106.747C74.6382 106.747 74.1779 106.824 73.7809 106.965C73.3839 107.119 73.0513 107.323 72.7697 107.579C72.6675 107.425 72.5389 107.285 72.3984 107.182C72.2445 107.067 72.0911 106.977 71.9117 106.926C71.7326 106.875 71.5664 106.85 71.3997 106.85C71.0929 106.85 70.8365 106.913 70.6317 107.054C70.427 107.195 70.3248 107.413 70.3248 107.72C70.3248 107.873 70.3501 107.989 70.4013 108.091C70.4525 108.193 70.5295 108.27 70.6064 108.334C70.7346 108.45 70.8491 108.564 70.9392 108.667C71.0289 108.77 71.0799 108.962 71.0799 109.243V114.12C71.0799 114.415 71.1826 114.671 71.3872 114.876C71.5919 115.081 71.848 115.183 72.1553 115.183C72.4496 115.183 72.7053 115.081 72.9104 114.876C73.1151 114.671 73.2173 114.415 73.2173 114.12V109.41C73.3712 109.205 73.5505 109.051 73.7677 108.936C73.9853 108.821 74.2417 108.757 74.5358 108.757C74.7662 108.757 74.9585 108.795 75.112 108.859C75.2654 108.923 75.3678 109.013 75.4573 109.128C75.5342 109.243 75.598 109.371 75.6239 109.525C75.6492 109.679 75.6752 109.832 75.6752 109.999V114.12C75.6752 114.415 75.7774 114.671 75.9825 114.876C76.1871 115.081 76.4432 115.183 76.7376 115.183C77.0319 115.183 77.288 115.081 77.5057 114.876C77.723 114.671 77.826 114.415 77.826 114.12ZM85.6212 112.571C85.6212 112.136 85.557 111.778 85.4293 111.496C85.3011 111.215 85.1347 110.984 84.9296 110.805C84.7254 110.626 84.4946 110.485 84.2262 110.396C83.9701 110.306 83.701 110.216 83.4454 110.152C83.1765 110.101 82.9334 110.05 82.703 110.011C82.4727 109.973 82.2675 109.922 82.0884 109.858C81.9097 109.794 81.7683 109.717 81.6661 109.615C81.5639 109.512 81.5127 109.371 81.5127 109.192C81.5127 109 81.6024 108.847 81.7685 108.706C81.9352 108.578 82.2168 108.514 82.5878 108.514C82.8567 108.514 83.113 108.539 83.3429 108.591C83.5733 108.642 83.8422 108.718 84.1495 108.821C84.3926 108.898 84.623 108.872 84.8281 108.757C85.0455 108.642 85.1866 108.463 85.2504 108.232C85.3401 108.002 85.3273 107.771 85.2119 107.554C85.097 107.336 84.9176 107.182 84.6742 107.105C84.3674 107.003 84.0473 106.913 83.714 106.85C83.3812 106.785 82.9589 106.76 82.4469 106.76C82.0499 106.76 81.6661 106.811 81.3076 106.926C80.9495 107.041 80.6417 107.195 80.3606 107.413C80.0912 107.63 79.8738 107.899 79.7074 108.219C79.554 108.539 79.4643 108.91 79.4643 109.333C79.4643 109.73 79.5155 110.05 79.6177 110.319C79.7204 110.587 79.8613 110.805 80.0405 110.971C80.2196 111.15 80.4118 111.279 80.6417 111.381C80.8725 111.471 81.1029 111.56 81.346 111.624C81.6149 111.701 81.8837 111.753 82.1526 111.804C82.421 111.842 82.6646 111.893 82.8692 111.957C83.0743 112.021 83.241 112.111 83.3812 112.213C83.5093 112.328 83.5731 112.482 83.5731 112.687C83.5731 112.93 83.4581 113.122 83.2278 113.263C82.9974 113.403 82.6901 113.467 82.2808 113.467C81.8705 113.467 81.5384 113.442 81.3076 113.378C81.0644 113.314 80.8341 113.25 80.6037 113.16C80.3861 113.071 80.1554 113.083 79.9251 113.186C79.6947 113.288 79.5285 113.467 79.4516 113.736C79.3878 113.954 79.4004 114.184 79.49 114.415C79.5793 114.645 79.7461 114.799 79.9763 114.888C80.2451 114.978 80.5652 115.067 80.911 115.132C81.2563 115.195 81.7041 115.221 82.2678 115.221C82.6901 115.221 83.0998 115.17 83.5094 115.08C83.9191 114.991 84.2774 114.837 84.585 114.62C84.8918 114.402 85.135 114.133 85.3273 113.813C85.5188 113.48 85.6089 113.083 85.6089 112.61L85.6212 112.571ZM89.4101 114.12V107.822C89.4101 107.528 89.3079 107.272 89.1033 107.054C88.8982 106.837 88.6425 106.735 88.3477 106.735C88.0404 106.735 87.7845 106.837 87.5801 107.054C87.375 107.272 87.2728 107.515 87.2728 107.822V114.12C87.2728 114.415 87.375 114.671 87.5801 114.876C87.7848 115.081 88.0404 115.183 88.3477 115.183C88.6423 115.183 88.8982 115.081 89.1033 114.876C89.3079 114.671 89.4101 114.415 89.4101 114.12ZM89.5383 104.469C89.5383 104.136 89.4234 103.841 89.193 103.624C88.9626 103.393 88.681 103.278 88.348 103.278C88.0151 103.278 87.7206 103.393 87.4907 103.624C87.2603 103.854 87.1449 104.136 87.1449 104.469C87.1449 104.802 87.2603 105.096 87.4907 105.314C87.7206 105.544 88.0026 105.659 88.348 105.659C88.6812 105.659 88.9626 105.544 89.193 105.314C89.4234 105.083 89.5383 104.801 89.5383 104.469ZM95.8748 109.09V112.341C95.6957 112.494 95.4906 112.597 95.2602 112.674C95.0298 112.751 94.8252 112.789 94.646 112.789C94.1852 112.789 93.8652 112.661 93.6858 112.417C93.5066 112.174 93.4299 111.816 93.4299 111.343V110.063C93.4299 109.051 93.8392 108.552 94.6458 108.552C94.8509 108.552 95.0555 108.603 95.2732 108.693C95.4906 108.782 95.6829 108.923 95.8616 109.103L95.8748 109.09ZM98.0122 107.822C98.0122 107.528 97.9225 107.272 97.7306 107.054C97.5387 106.837 97.2698 106.735 96.937 106.735C96.7194 106.735 96.5147 106.798 96.3481 106.926C96.1689 107.054 96.0408 107.208 95.9643 107.4C95.7207 107.182 95.4523 107.029 95.145 106.913C94.8377 106.798 94.5176 106.735 94.1848 106.735C93.6601 106.735 93.2121 106.811 92.8408 106.978C92.4695 107.144 92.1749 107.374 91.9445 107.695C91.7141 108.002 91.548 108.386 91.4458 108.834C91.3431 109.282 91.2919 109.794 91.2919 110.37V110.972C91.2919 111.547 91.3431 112.072 91.4325 112.52C91.5222 112.969 91.6884 113.353 91.906 113.66C92.1237 113.967 92.4185 114.197 92.7893 114.364C93.1611 114.517 93.6086 114.607 94.1591 114.607C94.4536 114.607 94.748 114.556 95.0553 114.467C95.3626 114.377 95.631 114.249 95.8746 114.095V114.505C95.8746 115.67 95.3626 116.246 94.3382 116.246C94.0694 116.246 93.839 116.233 93.6601 116.194C93.4809 116.169 93.3395 116.131 93.2118 116.092C93.0837 116.054 92.9687 116.015 92.866 115.99C92.7638 115.964 92.6484 115.938 92.5332 115.926C92.2901 115.913 92.085 116.002 91.9058 116.169C91.7267 116.348 91.6499 116.553 91.6499 116.783C91.6499 116.988 91.7137 117.155 91.8291 117.296C91.9441 117.436 92.098 117.539 92.2769 117.629C92.5969 117.769 92.9555 117.859 93.3525 117.91C93.7495 117.961 94.1461 117.987 94.5046 117.987C95.6952 117.987 96.5783 117.667 97.1542 117.014C97.7304 116.361 98.0247 115.478 98.0247 114.377V107.823H98.0122V107.822ZM106.832 114.12V109.742C106.832 109.294 106.781 108.885 106.691 108.527C106.602 108.155 106.448 107.835 106.243 107.579C106.038 107.323 105.756 107.119 105.424 106.965C105.078 106.811 104.656 106.747 104.156 106.747C103.759 106.747 103.389 106.799 103.081 106.888C102.761 106.978 102.48 107.105 102.236 107.272V104.673C102.236 104.379 102.134 104.123 101.929 103.918C101.724 103.713 101.468 103.611 101.174 103.611C100.867 103.611 100.61 103.713 100.406 103.918C100.201 104.123 100.099 104.379 100.099 104.673V114.133C100.099 114.427 100.201 114.683 100.406 114.888C100.611 115.093 100.867 115.195 101.174 115.195C101.468 115.195 101.724 115.093 101.929 114.888C102.134 114.683 102.236 114.427 102.236 114.133V109.422C102.39 109.217 102.569 109.064 102.787 108.949C103.004 108.833 103.274 108.77 103.567 108.77C103.798 108.77 103.99 108.808 104.143 108.872C104.297 108.936 104.399 109.026 104.489 109.141C104.566 109.256 104.617 109.384 104.643 109.538C104.668 109.691 104.681 109.845 104.681 110.011V114.133C104.681 114.427 104.783 114.683 104.988 114.888C105.193 115.093 105.449 115.195 105.743 115.195C106.051 115.195 106.307 115.093 106.511 114.888C106.716 114.683 106.818 114.427 106.818 114.133L106.832 114.12ZM113.796 114.133C113.796 113.864 113.706 113.647 113.527 113.467C113.348 113.288 113.13 113.199 112.861 113.199H112.554C112.042 113.199 111.709 113.058 111.543 112.777C111.376 112.495 111.287 112.021 111.287 111.381V108.603H112.503C112.746 108.603 112.951 108.514 113.117 108.347C113.284 108.168 113.373 107.963 113.373 107.72C113.373 107.477 113.284 107.272 113.117 107.105C112.951 106.939 112.746 106.85 112.503 106.85H111.287V105.774C111.287 105.48 111.184 105.224 110.98 105.006C110.775 104.789 110.519 104.686 110.224 104.686C109.93 104.686 109.674 104.788 109.457 105.006C109.239 105.224 109.137 105.467 109.137 105.774V106.85H108.88C108.637 106.85 108.432 106.939 108.266 107.105C108.1 107.272 108.01 107.477 108.01 107.72C108.01 107.963 108.1 108.168 108.266 108.347C108.432 108.526 108.638 108.603 108.88 108.603H109.137V111.407C109.137 111.957 109.187 112.456 109.303 112.917C109.418 113.378 109.598 113.762 109.84 114.082C110.084 114.402 110.404 114.658 110.801 114.824C111.197 115.004 111.684 115.08 112.247 115.08H112.849C113.117 115.08 113.335 114.991 113.514 114.799C113.694 114.619 113.783 114.389 113.783 114.12L113.796 114.133ZM120.669 112.559C120.669 112.124 120.606 111.765 120.477 111.483C120.349 111.202 120.183 110.971 119.978 110.792C119.774 110.613 119.543 110.472 119.274 110.383C119.018 110.293 118.75 110.203 118.493 110.139C118.225 110.088 117.981 110.037 117.751 109.999C117.521 109.96 117.316 109.909 117.136 109.845C116.958 109.781 116.816 109.704 116.714 109.602C116.612 109.499 116.561 109.359 116.561 109.179C116.561 108.987 116.65 108.834 116.817 108.693C116.983 108.564 117.265 108.501 117.636 108.501C117.905 108.501 118.161 108.527 118.391 108.578C118.622 108.629 118.891 108.706 119.198 108.808C119.441 108.885 119.671 108.859 119.876 108.744C120.094 108.629 120.235 108.45 120.298 108.219C120.388 107.989 120.375 107.758 120.26 107.54C120.145 107.323 119.965 107.169 119.723 107.093C119.415 106.99 119.095 106.901 118.763 106.837C118.429 106.773 118.007 106.747 117.495 106.747C117.098 106.747 116.714 106.798 116.356 106.913C115.998 107.029 115.69 107.182 115.409 107.4C115.14 107.617 114.922 107.887 114.756 108.206C114.602 108.527 114.513 108.898 114.513 109.32C114.513 109.717 114.564 110.037 114.666 110.306C114.769 110.575 114.909 110.793 115.089 110.959C115.268 111.138 115.46 111.266 115.69 111.369C115.921 111.458 116.151 111.547 116.394 111.612C116.663 111.688 116.932 111.74 117.201 111.791C117.47 111.829 117.713 111.88 117.917 111.944C118.122 112.008 118.289 112.098 118.429 112.2C118.557 112.316 118.622 112.469 118.622 112.674C118.622 112.917 118.506 113.109 118.276 113.25C118.045 113.39 117.738 113.455 117.328 113.455C116.919 113.455 116.586 113.429 116.356 113.365C116.113 113.301 115.882 113.237 115.652 113.148C115.434 113.058 115.204 113.071 114.973 113.173C114.743 113.275 114.576 113.454 114.5 113.724C114.436 113.941 114.448 114.172 114.538 114.402C114.628 114.632 114.794 114.786 115.025 114.875C115.293 114.965 115.613 115.054 115.959 115.119C116.304 115.182 116.753 115.208 117.316 115.208C117.738 115.208 118.148 115.157 118.557 115.068C118.967 114.978 119.326 114.824 119.633 114.607C119.94 114.389 120.184 114.12 120.375 113.8C120.567 113.467 120.657 113.071 120.657 112.597L120.669 112.559ZM68.5838 114.133V104.469C68.5838 104.161 68.4816 103.906 68.2637 103.688C68.0461 103.47 67.7902 103.368 67.4829 103.368C67.1756 103.368 66.9192 103.47 66.7148 103.688C66.5101 103.906 66.4075 104.161 66.4075 104.469V114.133C66.4075 114.44 66.5101 114.696 66.7148 114.914C66.9194 115.132 67.1756 115.234 67.4829 115.234C67.7902 115.234 68.0461 115.132 68.2637 114.914C68.4813 114.696 68.5838 114.44 68.5838 114.133Z" fill="#5599D2"/>
</svg>
