<svg width="128" height="128" viewBox="0 0 128 128" fill="none" xmlns="http://www.w3.org/2000/svg">
<rect width="128" height="128" fill="#2E3243"/>
<path d="M56.1833 77.2326C56.1833 63.4317 67.3076 52.2512 80.9522 52.2512C94.5968 52.2512 105.634 63.4317 105.721 77.4073C105.721 80.4644 105.113 83.3469 104.157 86.0547H95.5528C96.8564 83.871 97.6386 81.4253 97.8124 78.8048H100.507C101.202 78.8048 101.81 78.1934 101.81 77.4073C101.81 76.6211 101.289 76.0097 100.507 76.0097H97.8124C97.6386 73.6513 97.0303 71.4676 95.9874 69.4587L93.9885 72.2538C94.5968 73.826 94.9445 75.4856 94.9445 77.3199C94.9445 80.5518 93.9016 83.5216 92.0765 85.88H69.5672C67.7422 83.5216 66.6993 80.5518 66.6993 77.3199C66.6993 69.4587 72.9567 63.0823 80.7784 63.0823C83.7333 63.0823 86.4275 63.9558 88.6871 65.528L77.7366 73.0399C77.4759 73.2146 77.3021 73.3893 77.0414 73.6513C75.0425 75.6603 75.0425 79.0669 77.0414 81.0759L77.2152 81.2506C79.301 83.1722 82.4297 83.0849 84.4286 81.0759L95.4659 65.3533C96.0743 64.6546 95.9874 63.519 95.2921 62.8203C94.5968 62.1215 93.5539 62.0341 92.7718 62.6456L91.2943 63.6937C88.6871 61.6847 85.5584 60.3745 82.1689 60.1125V57.3174C82.1689 56.5312 81.5606 55.9198 80.7784 55.9198C80.0831 55.9198 79.4748 56.5312 79.4748 57.3174V60.1125C75.7377 60.3745 72.4352 61.8594 69.7411 64.1305L67.8291 62.2088C67.3076 61.6847 66.4385 61.6847 65.9171 62.2088C65.3956 62.7329 65.3956 63.6064 65.9171 64.1305L67.8291 66.0521C65.5695 68.7599 64.092 72.0791 63.8313 75.835H61.1371C60.4419 75.835 59.8335 76.4465 59.8335 77.2326C59.8335 78.0187 60.3549 78.6301 61.1371 78.6301H63.8313C64.092 81.2506 64.8742 83.6963 66.0909 85.88H57.7477C56.7048 83.1722 56.1833 80.2897 56.1833 77.2326Z" fill="#00A8DC"/>
<path d="M82.6035 77.582C82.6035 78.7397 81.6696 79.6783 80.5177 79.6783C79.3657 79.6783 78.4319 78.7397 78.4319 77.582C78.4319 76.4242 79.3657 75.4856 80.5177 75.4856C81.6696 75.4856 82.6035 76.4242 82.6035 77.582Z" fill="#00A8DC"/>
<path d="M58.0952 61.7721C59.3119 59.9378 60.7893 58.3655 62.3537 56.8806L49.0567 59.5884L43.4077 32.1613L83.6462 23.8633L89.2083 51.0283C90.6858 51.5524 92.1632 52.1639 93.5538 52.8626L86.688 19.2339L38.8884 29.0168L46.1018 64.2178L58.0952 61.7721Z" fill="white"/>
<path d="M81.3868 32.074C81.3868 33.9553 79.8693 35.4805 77.9973 35.4805C76.1254 35.4805 74.6079 33.9553 74.6079 32.074C74.6079 30.1926 76.1254 28.6674 77.9973 28.6674C79.8693 28.6674 81.3868 30.1926 81.3868 32.074Z" fill="white"/>
<path d="M57.0524 32.336L51.4033 56.0945L68.785 52.5132C69.8279 51.9892 70.8708 51.5524 72.0006 51.203C73.3042 50.7663 74.6078 50.4169 75.9115 50.1549C77.4758 49.8928 79.1271 49.7181 80.7783 49.7181H82.1689L85.9059 48.932L74.9555 39.1491L70.6101 44.5646L57.0524 32.336Z" fill="white"/>
<path d="M39.3231 41.9442L35.1515 43.5165L44.9722 69.4586L56.0964 65.1786C55.3143 66.7509 54.619 68.4105 54.1845 70.0701L42.7126 74.4374L30.1978 41.3328L38.3671 38.1883L39.3231 41.9442Z" fill="white"/>
<path d="M26.8952 54.959L40.8005 79.2415L50.3604 73.6513L53.6629 72.3411C53.4891 73.7386 53.3153 75.1363 53.2284 76.5338L39.323 84.5697L21.5068 53.4741L30.4584 48.3206L31.9358 51.9892L26.8952 54.959Z" fill="white"/>
<path d="M68.0357 103.399H71.2574C71.4262 103.399 71.5489 103.554 71.5796 103.709V108.038C71.5796 108.178 71.5029 108.27 71.4415 108.317C71.4415 108.317 69.7079 109.415 67.2686 109.415C63.9241 109.415 61.2393 106.739 61.2393 103.353C61.2393 99.9663 63.9241 97.2447 67.2686 97.2447C68.7721 97.2447 70.2295 97.8323 71.3648 98.822C71.5029 98.9612 71.5182 99.1622 71.3802 99.3014L70.3369 100.399C70.2142 100.538 70.0608 100.538 69.9074 100.399C69.1863 99.7498 68.2965 99.4096 67.376 99.4096C65.2741 99.4096 63.6172 101.219 63.6172 103.337C63.6172 105.44 65.2741 107.219 67.3913 107.219C68.3272 107.219 69.0482 106.94 69.3857 106.801V105.363H68.0357C67.8516 105.363 67.7135 105.224 67.7135 105.054V103.724C67.7135 103.538 67.8516 103.399 68.0357 103.399Z" fill="white"/>
<path d="M39.6977 97.3031C39.8818 97.3031 39.9892 97.4113 40.0046 97.5505L42.0144 108.932C42.0604 109.164 41.9223 109.318 41.7075 109.318H40.1733C40.0199 109.318 39.8818 109.195 39.8512 109.071L38.8539 102.654H38.8079L35.8623 109.303C35.8163 109.411 35.7242 109.488 35.5708 109.488H35.264C35.1105 109.488 35.0185 109.411 34.9725 109.303L31.9962 102.654H31.9501L30.9683 109.071C30.9529 109.179 30.8148 109.318 30.6614 109.318H29.1426C28.9278 109.318 28.7897 109.164 28.8204 108.932L30.8148 97.5505C30.8302 97.4268 30.9376 97.3031 31.1217 97.3031H31.3978C31.5359 97.3031 31.6433 97.3649 31.6893 97.4732L35.3867 105.468H35.4327L39.1301 97.4732C39.1915 97.3649 39.2682 97.3031 39.4216 97.3031H39.6977Z" fill="white"/>
<path d="M21.3222 97.4782H22.887C23.0405 97.4782 23.1939 97.6328 23.2092 97.8029V109.014C23.2092 109.184 23.0558 109.339 22.887 109.339H21.3222C21.1534 109.339 21 109.184 21 109.014V97.8029C21 97.6328 21.1534 97.4782 21.3222 97.4782Z" fill="white"/>
<path fill-rule="evenodd" clip-rule="evenodd" d="M52.0319 97.4886C51.9859 97.3804 51.9092 97.3031 51.7404 97.3031H51.5716C51.4182 97.3031 51.3415 97.3804 51.2802 97.4886L46.0486 108.885C45.9412 109.102 46.0793 109.318 46.3401 109.318H47.7976C48.0737 109.318 48.2118 109.148 48.2885 108.978L49.117 107.153H54.1491L54.9775 108.978C55.1003 109.21 55.2076 109.318 55.4685 109.318H56.9259C57.1714 109.318 57.3095 109.102 57.2174 108.885L52.0319 97.4886ZM49.9608 105.267L51.6023 101.54H51.6484L53.3206 105.267H49.9608Z" fill="white"/>
<path d="M79.222 97.4782H77.6571C77.4884 97.4782 77.335 97.6328 77.335 97.8029V109.014C77.335 109.184 77.4884 109.339 77.6571 109.339H79.222C79.3908 109.339 79.5442 109.184 79.5442 109.014V97.8029C79.5442 97.6328 79.3908 97.4782 79.222 97.4782Z" fill="white"/>
<path d="M86.2841 97.4782H93.1265C93.326 97.4782 93.4487 97.6328 93.4487 97.7874V99.1792C93.4487 99.3493 93.3106 99.5039 93.1265 99.5039H88.1558V102.689H92.2981C92.4668 102.689 92.6202 102.844 92.6202 103.014V104.406C92.6202 104.576 92.4668 104.731 92.2981 104.731H88.1558V109.014C88.1558 109.184 88.0024 109.339 87.8336 109.339H86.2841C86.1 109.339 85.9619 109.184 85.9619 109.014V97.8029C85.9619 97.6328 86.1 97.4782 86.2841 97.4782Z" fill="white"/>
<path d="M107.181 97.4782H105.448C105.31 97.4782 105.233 97.5555 105.171 97.6328L102.487 101.53L99.8018 97.6328C99.7558 97.5709 99.6637 97.4782 99.5257 97.4782H97.8074C97.5312 97.4782 97.4085 97.7565 97.5312 97.973L101.367 103.633V109.014C101.367 109.184 101.505 109.339 101.689 109.339H103.238C103.407 109.339 103.561 109.184 103.561 109.014V103.602L107.442 97.9575C107.58 97.741 107.442 97.4782 107.181 97.4782Z" fill="white"/>
</svg>
