<svg width="128" height="128" viewBox="0 0 128 128" fill="none" xmlns="http://www.w3.org/2000/svg">
<rect width="128" height="128" fill="#F9F9F9"/>
<path d="M26.564 83.689C28.45 84.103 30.382 84.793 32.36 85.759C34.384 86.725 36.454 87.714 38.57 88.726C40.686 89.738 42.825 90.612 44.987 91.348C47.195 92.13 49.403 92.521 51.611 92.521C52.485 92.521 53.382 92.429 54.302 92.245C55.222 92.107 56.142 91.831 57.062 91.417C57.108 91.647 57.131 91.854 57.131 92.038C57.131 92.222 57.131 92.429 57.131 92.659C57.131 93.717 56.97 94.798 56.648 95.902C56.326 97.052 55.843 98.087 55.199 99.007C54.601 99.927 53.819 100.686 52.853 101.284C51.887 101.928 50.76 102.25 49.472 102.25C48 102.25 46.482 101.859 44.918 101.077C43.4 100.295 41.813 99.329 40.157 98.179C38.501 97.029 36.799 95.764 35.051 94.384C33.303 93.05 31.509 91.808 29.669 90.658C27.829 89.508 25.943 88.542 24.011 87.76C22.079 86.978 20.124 86.587 18.146 86.587C17.87 86.587 17.594 86.587 17.318 86.587C17.088 86.587 16.835 86.61 16.559 86.656V38.908C14.351 39.966 12.649 41.507 11.453 43.531C10.303 45.509 9.728 47.924 9.728 50.776C9.728 52.018 9.82 53.099 10.004 54.019C10.234 54.893 10.464 55.629 10.694 56.227C10.97 56.825 11.246 57.331 11.522 57.745C11.798 58.113 12.005 58.389 12.143 58.573C9.383 58.573 7.198 57.929 5.588 56.641C3.978 55.353 3.173 53.329 3.173 50.569C3.173 48.223 3.748 46.038 4.898 44.014C6.048 41.99 7.566 40.242 9.452 38.77C11.384 37.252 13.569 36.079 16.007 35.251C18.491 34.377 21.044 33.94 23.666 33.94C24.172 33.94 24.655 33.963 25.115 34.009C25.621 34.009 26.104 34.032 26.564 34.078V83.689ZM50.9296 50.155C54.1036 50.155 56.6336 51.029 58.5196 52.777C60.4056 54.479 61.6246 57.239 62.1766 61.057H62.6596C63.3036 61.057 64.0166 60.942 64.7986 60.712C65.6266 60.482 66.4776 60.183 67.3516 59.815C68.2256 59.447 69.0766 59.01 69.9046 58.504C70.7326 57.998 71.4686 57.469 72.1126 56.917L73.1476 58.78C72.6416 59.516 71.9976 60.183 71.2156 60.781C70.4796 61.379 69.6286 61.931 68.6626 62.437C67.6966 62.897 66.6846 63.311 65.6266 63.679C64.5686 64.001 63.5106 64.254 62.4526 64.438C62.4986 64.76 62.5216 65.082 62.5216 65.404C62.5216 65.68 62.5216 65.979 62.5216 66.301C62.5216 68.969 62.2916 71.476 61.8316 73.822C61.3716 76.122 60.5896 78.146 59.4856 79.894C58.4276 81.596 57.0476 82.953 55.3456 83.965C53.6436 84.931 51.5506 85.414 49.0666 85.414C47.3646 85.414 45.7316 85.161 44.1676 84.655C42.6496 84.103 41.2926 83.229 40.0966 82.033C38.9006 80.791 37.9346 79.181 37.1986 77.203C36.5086 75.179 36.1636 72.718 36.1636 69.82C36.1636 67.842 36.3706 65.726 36.7846 63.472C37.1986 61.172 37.9576 59.033 39.0616 57.055C40.1656 55.077 41.6606 53.444 43.5466 52.156C45.4786 50.822 47.9396 50.155 50.9296 50.155ZM50.9986 78.928C51.9646 78.928 52.7926 78.606 53.4826 77.962C54.2186 77.272 54.8166 76.352 55.2766 75.202C55.7366 74.006 56.0586 72.603 56.2426 70.993C56.4726 69.383 56.5876 67.635 56.5876 65.749V64.714C55.4376 64.484 54.7016 64.047 54.3796 63.403C54.0576 62.759 53.8966 62.046 53.8966 61.264C53.8966 60.298 54.0576 59.562 54.3796 59.056C54.7016 58.55 55.1156 58.205 55.6216 58.021C55.1156 56.457 54.4946 55.445 53.7586 54.985C53.0686 54.525 52.4706 54.295 51.9646 54.295C50.9526 54.295 50.0786 54.778 49.3426 55.744C48.6526 56.664 48.0776 57.86 47.6176 59.332C47.1576 60.758 46.8126 62.345 46.5826 64.093C46.3986 65.841 46.3066 67.52 46.3066 69.13C46.3066 71.2 46.4446 72.879 46.7206 74.167C47.0426 75.455 47.4336 76.444 47.8936 77.134C48.3536 77.824 48.8596 78.307 49.4116 78.583C49.9636 78.813 50.4926 78.928 50.9986 78.928ZM85.1159 61.195C85.2079 60.827 85.2539 60.505 85.2539 60.229C85.2999 59.953 85.3229 59.585 85.3229 59.125C85.3229 57.239 85.0469 55.882 84.4949 55.054C83.9889 54.226 83.3219 53.812 82.4939 53.812C81.5739 53.812 80.7689 54.295 80.0789 55.261C79.4349 56.181 78.8829 57.377 78.4229 58.849C78.0089 60.275 77.6869 61.885 77.4569 63.679C77.2729 65.473 77.1809 67.221 77.1809 68.923C77.1809 71.085 77.3189 72.856 77.5949 74.236C77.9169 75.616 78.3769 76.697 78.9749 77.479C79.5729 78.261 80.3089 78.813 81.1829 79.135C82.1029 79.457 83.1379 79.618 84.2879 79.618C85.6679 79.618 86.8639 79.434 87.8759 79.066C88.9339 78.698 89.8769 78.215 90.7049 77.617C91.5329 76.973 92.2919 76.237 92.9819 75.409C93.6719 74.535 94.3389 73.615 94.9829 72.649H97.3289C96.6849 74.259 95.9029 75.823 94.9829 77.341C94.1089 78.859 93.0049 80.216 91.6709 81.412C90.3829 82.608 88.8419 83.574 87.0479 84.31C85.2999 85.046 83.2529 85.414 80.9069 85.414C78.9749 85.414 77.1809 85.138 75.5249 84.586C73.8689 83.988 72.4199 83.068 71.1779 81.826C69.9819 80.538 69.0389 78.882 68.3489 76.858C67.7049 74.834 67.3829 72.396 67.3829 69.544C67.3829 67.612 67.5669 65.519 67.9349 63.265C68.3489 60.965 69.0849 58.849 70.1429 56.917C71.2009 54.985 72.6269 53.375 74.4209 52.087C76.2609 50.799 78.6299 50.155 81.5279 50.155C83.3219 50.155 84.7939 50.408 85.9439 50.914C87.1399 51.42 88.0829 52.064 88.7729 52.846C89.4629 53.582 89.9459 54.41 90.2219 55.33C90.4979 56.204 90.6359 57.055 90.6359 57.883C90.6359 59.079 90.3829 60.068 89.8769 60.85C89.4169 61.632 88.7729 62.023 87.9449 62.023C87.5769 62.023 87.1399 61.954 86.6339 61.816C86.1279 61.678 85.6219 61.471 85.1159 61.195ZM109.389 50.155C112.241 50.155 114.564 50.868 116.358 52.294C118.152 53.674 119.44 55.882 120.222 58.918C120.636 58.688 121.004 58.389 121.326 58.021C121.694 57.607 121.993 57.193 122.223 56.779C122.499 56.319 122.729 55.882 122.913 55.468C123.097 55.054 123.235 54.709 123.327 54.433H125.535C125.351 55.123 125.121 55.882 124.845 56.71C124.615 57.538 124.316 58.366 123.948 59.194C123.626 59.976 123.212 60.735 122.706 61.471C122.2 62.207 121.579 62.851 120.843 63.403C120.889 63.863 120.912 64.346 120.912 64.852C120.958 65.312 120.981 65.795 120.981 66.301C120.981 68.969 120.751 71.476 120.291 73.822C119.831 76.122 119.049 78.146 117.945 79.894C116.887 81.596 115.507 82.953 113.805 83.965C112.103 84.931 110.01 85.414 107.526 85.414C105.824 85.414 104.191 85.161 102.627 84.655C101.109 84.103 99.7523 83.229 98.5563 82.033C97.3603 80.791 96.3943 79.181 95.6583 77.203C94.9683 75.179 94.6233 72.718 94.6233 69.82C94.6233 67.842 94.8303 65.726 95.2443 63.472C95.6583 61.172 96.4173 59.033 97.5213 57.055C98.6253 55.077 100.12 53.444 102.006 52.156C103.938 50.822 106.399 50.155 109.389 50.155ZM109.458 78.928C110.424 78.928 111.252 78.606 111.942 77.962C112.678 77.272 113.276 76.352 113.736 75.202C114.196 74.006 114.518 72.603 114.702 70.993C114.932 69.383 115.047 67.635 115.047 65.749V64.783C113.207 64.369 112.287 63.012 112.287 60.712C112.287 59.24 112.885 58.274 114.081 57.814C113.575 56.342 112.954 55.399 112.218 54.985C111.528 54.525 110.93 54.295 110.424 54.295C109.412 54.295 108.538 54.778 107.802 55.744C107.112 56.664 106.537 57.86 106.077 59.332C105.617 60.758 105.272 62.345 105.042 64.093C104.858 65.841 104.766 67.52 104.766 69.13C104.766 71.2 104.904 72.879 105.18 74.167C105.502 75.455 105.893 76.444 106.353 77.134C106.813 77.824 107.319 78.307 107.871 78.583C108.423 78.813 108.952 78.928 109.458 78.928Z" fill="#3DB63D"/>
</svg>
