<svg width="128" height="128" viewBox="0 0 128 128" fill="none" xmlns="http://www.w3.org/2000/svg">
<rect width="128" height="128" fill="url(#paint0_linear_1507_7915)"/>
<path fill-rule="evenodd" clip-rule="evenodd" d="M19.4807 70.1799C18.7777 70.8447 18.6875 71.2866 18.6875 71.4848C18.6875 71.6831 18.7777 72.1249 19.4807 72.7898C20.1891 73.4596 21.3482 74.1781 22.9879 74.8339C26.2534 76.1401 30.936 77.0038 36.2355 77.0038C41.535 77.0038 46.2176 76.1401 49.4831 74.8339C51.1228 74.1781 52.2819 73.4596 52.9903 72.7898C53.6933 72.1249 53.7835 71.6831 53.7835 71.4848C53.7835 71.2866 53.6933 70.8447 52.9903 70.1799C52.2819 69.51 51.1228 68.7916 49.4831 68.1357C46.2176 66.8296 41.535 65.9658 36.2355 65.9658C30.936 65.9658 26.2534 66.8296 22.9879 68.1357C21.3482 68.7916 20.1891 69.51 19.4807 70.1799ZM21.131 63.4933C25.1214 61.8972 30.4628 60.9658 36.2355 60.9658C42.0082 60.9658 47.3496 61.8972 51.34 63.4933C53.3283 64.2886 55.1051 65.2982 56.4258 66.5471C57.7517 67.8009 58.7835 69.4687 58.7835 71.4848C58.7835 71.5894 58.7807 71.693 58.7753 71.7957C58.7807 71.8631 58.7835 71.9312 58.7835 72V83.5137V95.542V107.57C58.7835 109.57 57.7732 111.233 56.4576 112.491C55.1489 113.742 53.3851 114.755 51.4037 115.553C47.4279 117.154 42.0834 118.09 36.2355 118.09C30.3876 118.09 25.0431 117.154 21.0673 115.553C19.0859 114.755 17.3221 113.742 16.0134 112.491C14.6978 111.233 13.6875 109.57 13.6875 107.57V95.542V83.5137V72C13.6875 71.9312 13.6903 71.8631 13.6957 71.7957C13.6903 71.693 13.6875 71.5894 13.6875 71.4848C13.6875 69.4687 14.7193 67.8009 16.0452 66.5471C17.3659 65.2982 19.1427 64.2886 21.131 63.4933ZM18.6875 78.321V83.5137C18.6875 83.7195 18.7798 84.1615 19.469 84.8206C20.1651 85.4862 21.3082 86.2029 22.9355 86.8584C26.1769 88.1641 30.8564 89.0332 36.2355 89.0332C41.6146 89.0332 46.2941 88.1641 49.5355 86.8584C51.1628 86.2029 52.3059 85.4862 53.002 84.8206C53.6912 84.1615 53.7835 83.7195 53.7835 83.5137V78.321C53.0219 78.7476 52.2008 79.132 51.34 79.4763C47.3496 81.0725 42.0082 82.0038 36.2355 82.0038C30.4628 82.0038 25.1214 81.0725 21.131 79.4763C20.2702 79.132 19.4491 78.7476 18.6875 78.321ZM53.7835 90.3665C53.0412 90.7827 52.2419 91.1587 51.4037 91.4963C47.4279 93.0978 42.0834 94.0332 36.2355 94.0332C30.3876 94.0332 25.0431 93.0978 21.0673 91.4963C20.2291 91.1587 19.4298 90.7827 18.6875 90.3665V95.542C18.6875 95.7478 18.7798 96.1898 19.469 96.8488C20.1651 97.5144 21.3081 98.231 22.9354 98.8865C26.1769 100.192 30.8564 101.061 36.2355 101.061C41.6146 101.061 46.2941 100.192 49.5356 98.8865C51.1629 98.231 52.3059 97.5144 53.002 96.8488C53.6912 96.1898 53.7835 95.7478 53.7835 95.542V90.3665ZM53.7835 102.395C53.0411 102.811 52.2418 103.187 51.4036 103.524C47.4279 105.126 42.0834 106.061 36.2355 106.061C30.3876 106.061 25.0431 105.126 21.0674 103.524C20.2292 103.187 19.4299 102.811 18.6875 102.395V107.57C18.6875 107.776 18.7798 108.218 19.469 108.877C20.1651 109.543 21.3082 110.26 22.9355 110.915C26.1769 112.221 30.8564 113.09 36.2355 113.09C41.6146 113.09 46.2941 112.221 49.5355 110.915C51.1628 110.26 52.3059 109.543 53.002 108.877C53.6912 108.218 53.7835 107.776 53.7835 107.57V102.395Z" fill="#B2F7FC"/>
<path fill-rule="evenodd" clip-rule="evenodd" d="M46.3452 20.7322C50.9846 18.4122 56.9242 21.2269 57.5605 26.6523C57.7725 28.0115 59.2437 29.1275 60.7423 28.9133C60.8594 28.8966 60.9776 28.8882 61.0959 28.8882H67.5114C67.6297 28.8882 67.7479 28.8966 67.865 28.9133C69.3637 29.1275 70.8349 28.0114 71.0469 26.6521C71.3699 23.9053 73.0885 21.9345 75.1956 20.9173C77.2655 19.918 79.7798 19.7865 82.0218 20.6274C82.0682 20.6448 82.114 20.6636 82.1593 20.6837C85.9688 22.3768 89.3252 24.4793 92.2202 26.5475C92.2359 26.5587 92.2515 26.5701 92.2669 26.5817C94.4267 28.2016 95.646 30.489 95.7218 32.9143C95.7972 35.327 94.7324 37.6404 92.7947 39.301L92.7686 39.3231C91.5886 40.3066 91.3747 41.9845 92.4126 43.5836C93.6987 45.3081 94.9943 47.465 95.882 49.6734C96.6442 51.4194 98.4831 52.103 99.7947 51.5492C105.03 49.2366 110.245 52.7798 110.881 57.8624C111.311 60.0649 111.31 61.8555 111.31 63.7905V63.8662V63.9419C111.31 65.9062 111.311 67.7215 110.861 69.97C110.857 69.9874 110.854 70.0048 110.85 70.0221C109.752 74.9614 104.731 77.959 100.027 76.2729C98.2749 75.8096 96.5141 76.6188 95.8816 78.0598C94.994 80.268 93.6986 82.4245 92.4126 84.1487C91.3748 85.7479 91.5886 87.4258 92.7686 88.4093L92.7947 88.4314C96.8925 91.9431 96.278 98.2614 92.2458 101.167C88.8981 103.675 85.9419 105.364 82.2066 107.028C77.5751 109.298 71.6811 106.483 71.0468 101.08C70.8348 99.721 69.3637 98.6049 67.865 98.8191C67.7479 98.8358 67.6297 98.8442 67.5114 98.8442H67.5044H67.4973H67.4903H67.4833H67.4763H67.4693H67.4623H67.4553H67.4483H67.4414H67.4344H67.4275H67.4205H67.4136H67.4067H67.3998H67.3929H67.386H67.3791H67.3722H67.3654H67.3585H67.3516H67.3448H67.338H67.3311H67.3243H67.3175H67.3107H67.3039H67.2971H67.2904H67.2836H67.2768H67.2701H67.2633H67.2566H67.2499H67.2431H67.2364H67.2297H67.223H67.2163H67.2096H67.203H67.1963H67.1896H67.183H67.1763H67.1697H67.1631H67.1564H67.1498H67.1432H67.1366H67.13H67.1234H67.1169H67.1103H67.1037H67.0972H67.0906H67.0841H67.0775H67.071H67.0645H67.0579H67.0514H67.0449H67.0384H67.0319H67.0255H67.019H67.0125H67.006H66.9996H66.9931H66.9867H66.9802H66.9738H66.9674H66.961H66.9546H66.9482H66.9418H66.9354H66.929H66.9226H66.9162H66.9098H66.9035H66.8971H66.8908H66.8844H66.8781H66.8717H66.8654H66.8591H66.8528H66.8464H66.8401H66.8338H66.8275H66.8213H66.815H66.8087H66.8024H66.7961H66.7899H66.7836H66.7774H66.7711H66.7649H66.7586H66.7524H66.7462H66.74H66.7337H66.7275H66.7213H66.7151H66.7089H66.7027H66.6965H66.6903H66.6842H66.678H66.6718H66.6657H66.6595H66.6533H66.6472H66.641H66.6349H66.6288H66.6226H66.6165H66.6104H66.6043H66.5981H66.592H66.5859H66.5798H66.5737H66.5676H66.5615H66.5554H66.5493H66.5433H66.5372H66.5311H66.525H66.519H66.5129H66.5069H66.5008H66.4948H66.4887H66.4827H66.4766H66.4706H66.4645H66.4585H66.4525H66.4465H66.4404H66.4344H66.4284H66.4224H66.4164H66.4104H66.4044H66.3984H66.3924H66.3864H66.3804H66.3744H66.3684H66.3625H66.3565H66.3505H66.3445H66.3386H66.3326H66.3266H66.3207H66.3147H66.3087H66.3028H66.2968H66.2909H66.2849H66.279H66.2731H66.2671H66.2612H66.2552H66.2493H66.2434H66.2374H66.2315H66.2256H66.2197H66.2137H66.2078H66.2019H66.196H66.1901H66.1841H66.1782H66.1723H66.1664H66.1605H66.1546H66.1487H66.1428H66.1369H66.131H66.1251H66.1192H66.1133H66.1074H66.1015H66.0956H66.0897H66.0838H66.0779H66.0721H66.0662H66.0603H66.0544H66.0485H66.0426H66.0367H66.0309H66.025H66.0191H66.0132H66.0073H66.0015H65.9956H65.9897H65.9838H65.978H65.9721H65.9662H65.9603H65.9545H65.9486H65.9427H65.9368H65.931H65.9251H65.9192H65.9133H65.9075H65.9016H65.8957H65.8899H65.884H65.8781H65.8722H65.8664H65.8605H65.8546H65.8487H65.8429H65.837H65.8311H65.8252H65.8194H65.8135H65.8076H65.8017H65.7958H65.79H65.7841H65.7782H65.7723H65.7664H65.7605H65.7547H65.7488H65.7429H65.737H65.7311H65.7252H65.7193H65.7134H65.7075H65.7017H65.6958H65.6899H65.684H65.6781H65.6722H65.6663H65.6604H65.6545H65.6485H65.6426H65.6367H65.6308H65.6249H65.619H65.6131H65.6071H65.6012H65.5953H65.5894H65.5835H65.5775H65.5716H65.5657H65.5597H65.5538H65.5479H65.5419H65.536H65.53H65.5241H65.5181H65.5122H65.5062H65.5003H65.4943H65.4883H65.4824H65.4764H65.4704H65.4645H65.4585H65.4525H65.4465H65.4406H65.4346H65.4286H65.4226H65.4166H65.4106H65.4046H65.3986H65.3926H65.3866H65.3806H65.3745H65.3685H65.3625H65.3565H65.3504H65.3444H65.3384H65.3323H65.3263H65.3202H65.3142H65.3081H65.3021H65.296H65.29H65.2839H65.2778H65.2717H65.2657H65.2596H65.2535H65.2474H65.2413H65.2352H65.2291H65.223H65.2169H65.2108H65.2046H65.1985H65.1924H65.1863H65.1801H65.174H65.1678H65.1617H65.1555H65.1494H65.1432H65.137H65.1309H65.1247H65.1185H65.1123H65.1061H65.0999H65.0937H65.0875H65.0813H65.0751H65.0689H65.0627H65.0564H65.0502H65.0439H65.0377H65.0314H65.0252H65.0189H65.0127H65.0064H65.0001H64.9938H64.9875H64.9812H64.9749H64.9686H64.9623H64.956H64.9497H64.9434H64.937H64.9307H64.9243H64.918H64.9116H64.9053H64.8989H64.8925H64.8861H64.8798H64.8734H64.867H64.8606H64.8541H64.8477H64.8413H64.8349H64.8284H64.822H64.8155H64.8091H64.8026H64.7962H64.7897H64.7832H64.7767H64.7702H64.7637H64.7572H64.7507H64.7442H64.7376H64.7311H64.7246H64.718H64.7115H64.7049H64.6983H64.6917H64.6852H64.6786H64.672H64.6654H64.6587H64.6521H64.6455H64.6389H64.6322H64.6256H64.6189H64.6122H64.6056H64.5989H64.5922H64.5855H64.5788H64.5721H64.5654H64.5586H64.5519H64.5452H64.5384H64.5316H64.5249H64.5181H64.5113H64.5045H64.4977H64.4909H64.4841H64.4773H64.4705H64.4636H64.4568H64.4499H64.443H64.4362H64.4293H64.4224H64.4155H64.4086H64.4017H64.3947H64.3878H64.3809H64.3739H64.367H64.36H64.353H64.346H64.339H64.332H64.325H64.318H64.3109H64.3039C62.9232 98.8442 61.8039 97.7249 61.8039 96.3442C61.8039 94.9635 62.9232 93.8442 64.3039 93.8442H64.3109H64.318H64.325H64.332H64.339H64.346H64.353H64.36H64.367H64.3739H64.3809H64.3878H64.3947H64.4017H64.4086H64.4155H64.4224H64.4293H64.4362H64.443H64.4499H64.4568H64.4636H64.4705H64.4773H64.4841H64.4909H64.4977H64.5045H64.5113H64.5181H64.5249H64.5316H64.5384H64.5452H64.5519H64.5586H64.5654H64.5721H64.5788H64.5855H64.5922H64.5989H64.6056H64.6122H64.6189H64.6256H64.6322H64.6389H64.6455H64.6521H64.6587H64.6654H64.672H64.6786H64.6852H64.6917H64.6983H64.7049H64.7115H64.718H64.7246H64.7311H64.7376H64.7442H64.7507H64.7572H64.7637H64.7702H64.7767H64.7832H64.7897H64.7962H64.8026H64.8091H64.8155H64.822H64.8284H64.8349H64.8413H64.8477H64.8541H64.8606H64.867H64.8734H64.8798H64.8861H64.8925H64.8989H64.9053H64.9116H64.918H64.9243H64.9307H64.937H64.9434H64.9497H64.956H64.9623H64.9686H64.9749H64.9812H64.9875H64.9938H65.0001H65.0064H65.0127H65.0189H65.0252H65.0314H65.0377H65.0439H65.0502H65.0564H65.0627H65.0689H65.0751H65.0813H65.0875H65.0937H65.0999H65.1061H65.1123H65.1185H65.1247H65.1309H65.137H65.1432H65.1494H65.1555H65.1617H65.1678H65.174H65.1801H65.1863H65.1924H65.1985H65.2046H65.2108H65.2169H65.223H65.2291H65.2352H65.2413H65.2474H65.2535H65.2596H65.2657H65.2717H65.2778H65.2839H65.29H65.296H65.3021H65.3081H65.3142H65.3202H65.3263H65.3323H65.3384H65.3444H65.3504H65.3565H65.3625H65.3685H65.3745H65.3806H65.3866H65.3926H65.3986H65.4046H65.4106H65.4166H65.4226H65.4286H65.4346H65.4406H65.4465H65.4525H65.4585H65.4645H65.4704H65.4764H65.4824H65.4883H65.4943H65.5003H65.5062H65.5122H65.5181H65.5241H65.53H65.536H65.5419H65.5479H65.5538H65.5597H65.5657H65.5716H65.5775H65.5835H65.5894H65.5953H65.6012H65.6071H65.6131H65.619H65.6249H65.6308H65.6367H65.6426H65.6485H65.6545H65.6604H65.6663H65.6722H65.6781H65.684H65.6899H65.6958H65.7017H65.7075H65.7134H65.7193H65.7252H65.7311H65.737H65.7429H65.7488H65.7547H65.7605H65.7664H65.7723H65.7782H65.7841H65.79H65.7958H65.8017H65.8076H65.8135H65.8194H65.8252H65.8311H65.837H65.8429H65.8487H65.8546H65.8605H65.8664H65.8722H65.8781H65.884H65.8899H65.8957H65.9016H65.9075H65.9133H65.9192H65.9251H65.931H65.9368H65.9427H65.9486H65.9545H65.9603H65.9662H65.9721H65.978H65.9838H65.9897H65.9956H66.0015H66.0073H66.0132H66.0191H66.025H66.0309H66.0367H66.0426H66.0485H66.0544H66.0603H66.0662H66.0721H66.0779H66.0838H66.0897H66.0956H66.1015H66.1074H66.1133H66.1192H66.1251H66.131H66.1369H66.1428H66.1487H66.1546H66.1605H66.1664H66.1723H66.1782H66.1841H66.1901H66.196H66.2019H66.2078H66.2137H66.2197H66.2256H66.2315H66.2374H66.2434H66.2493H66.2552H66.2612H66.2671H66.2731H66.279H66.2849H66.2909H66.2968H66.3028H66.3087H66.3147H66.3207H66.3266H66.3326H66.3386H66.3445H66.3505H66.3565H66.3625H66.3684H66.3744H66.3804H66.3864H66.3924H66.3984H66.4044H66.4104H66.4164H66.4224H66.4284H66.4344H66.4404H66.4465H66.4525H66.4585H66.4645H66.4706H66.4766H66.4827H66.4887H66.4948H66.5008H66.5069H66.5129H66.519H66.525H66.5311H66.5372H66.5433H66.5493H66.5554H66.5615H66.5676H66.5737H66.5798H66.5859H66.592H66.5981H66.6043H66.6104H66.6165H66.6226H66.6288H66.6349H66.641H66.6472H66.6533H66.6595H66.6657H66.6718H66.678H66.6842H66.6903H66.6965H66.7027H66.7089H66.7151H66.7213H66.7275H66.7337H66.74H66.7462H66.7524H66.7586H66.7649H66.7711H66.7774H66.7836H66.7899H66.7961H66.8024H66.8087H66.815H66.8213H66.8275H66.8338H66.8401H66.8464H66.8528H66.8591H66.8654H66.8717H66.8781H66.8844H66.8908H66.8971H66.9035H66.9098H66.9162H66.9226H66.929H66.9354H66.9418H66.9482H66.9546H66.961H66.9674H66.9738H66.9802H66.9867H66.9931H66.9996H67.006H67.0125H67.019H67.0255H67.0319H67.0384H67.0449H67.0514H67.0579H67.0645H67.071H67.0775H67.0841H67.0906H67.0972H67.1037H67.1103H67.1169H67.1234H67.13H67.1366H67.1432H67.1498H67.1564H67.1631H67.1697H67.1763H67.183H67.1896H67.1963H67.203H67.2096H67.2163H67.223H67.2297H67.2364H67.2431H67.2499H67.2566H67.2633H67.2701H67.2768H67.2836H67.2904H67.2971H67.3039H67.3107H67.3175H67.3243H67.3311H67.338H67.3448H67.3516H67.3517C71.3912 93.3739 75.4043 96.2258 76.0008 100.401C76.0045 100.427 76.0077 100.453 76.0106 100.479C76.2062 102.238 78.2646 103.409 80.0257 102.528C80.0596 102.511 80.0939 102.495 80.1286 102.48C83.5809 100.945 86.2224 99.4345 89.2668 97.1508C89.2823 97.1392 89.298 97.1277 89.3138 97.1164C90.8691 96.0055 91.0478 93.5305 89.5508 92.2363C85.9495 89.2198 86.1578 84.5175 88.2856 81.3248C88.2991 81.3045 88.3129 81.2845 88.3269 81.2646C88.3398 81.2465 88.3528 81.2286 88.3661 81.2109C89.4643 79.7471 90.5474 77.9325 91.2527 76.1692C91.2603 76.1503 91.2681 76.1315 91.2761 76.1128C93.0492 71.9763 97.6514 70.393 101.478 71.4864C101.542 71.5049 101.606 71.5259 101.669 71.5494C103.342 72.1769 105.456 71.1823 105.964 68.9612C106.305 67.2418 106.31 65.8718 106.31 63.8662C106.31 61.8497 106.305 60.4757 105.958 58.743C105.944 58.6721 105.933 58.6007 105.925 58.5288C105.695 56.4616 103.743 55.2659 101.806 56.1267L101.776 56.14C97.4811 57.981 92.9241 55.4642 91.2761 51.6197C91.2681 51.6009 91.2603 51.5821 91.2527 51.5632C90.5474 49.8 89.4643 47.9853 88.3661 46.5215C88.3382 46.4843 88.3114 46.4464 88.2856 46.4077C86.1571 43.214 85.9493 38.5098 89.5539 35.4934C90.4137 34.7507 90.749 33.8615 90.7243 33.0705C90.7 32.2934 90.3202 31.3802 89.288 30.5976C86.5965 28.6765 83.5717 26.7911 80.2044 25.2865C79.2543 24.95 78.1886 25.0245 77.3694 25.42C76.5822 25.8 76.1035 26.4179 76.0106 27.2538C76.0077 27.2797 76.0045 27.3055 76.0008 27.3313C75.4043 31.5066 71.3912 34.3586 67.3517 33.8882H61.2556C57.2162 34.3586 53.203 31.5066 52.6065 27.3313C52.6028 27.3054 52.5996 27.2795 52.5967 27.2535C52.4058 25.5334 50.4337 24.3757 48.6995 25.1485C47.4591 25.9705 46.24 26.7182 45.1131 27.4093C44.6139 27.7155 44.1329 28.0105 43.6761 28.296C42.1035 29.2788 40.7265 30.2024 39.4676 31.2817C39.3725 31.3632 39.2715 31.4374 39.1653 31.5038C37.6256 32.466 37.3557 34.7526 38.9798 36.2301C40.8558 37.557 41.6988 39.5947 41.8374 41.5351C41.978 43.5032 41.4243 45.5553 40.3217 47.2097C40.296 47.2484 40.2691 47.2863 40.2412 47.3235C39.143 48.7873 38.0598 50.602 37.3545 52.3649C37.3497 52.377 37.3447 52.3891 37.3397 52.4012L37.3314 52.4207C35.5589 56.5583 30.9557 58.1414 27.1295 57.048C26.9363 56.9928 26.7505 56.9145 26.5761 56.8148C26.0025 56.4871 25.4076 56.5011 24.8097 56.8121C24.1592 57.1503 23.6138 57.8034 23.4037 58.5386C23.0243 59.8662 21.6406 60.6349 20.313 60.2555C18.9854 59.8761 18.2168 58.4924 18.5961 57.1648C19.188 55.0936 20.6474 53.3409 22.5029 52.376C24.3185 51.4319 26.5907 51.2173 28.7309 52.2983C30.4327 52.678 32.1118 51.8741 32.7256 50.4743C33.613 48.2672 34.908 46.1112 36.1936 44.3871C36.6728 43.6433 36.9087 42.7116 36.8501 41.8913C36.792 41.0771 36.4743 40.566 36.0525 40.2847C35.9689 40.229 35.8887 40.1683 35.8125 40.1029C31.9645 36.8048 31.6735 30.4443 36.3478 27.3712C37.8552 26.0965 39.4383 25.0483 41.0262 24.0559C41.5532 23.7266 42.0731 23.4078 42.5931 23.089L42.5931 23.089C43.7289 22.3925 44.8651 21.6959 46.0765 20.8882C46.1628 20.8307 46.2525 20.7786 46.3452 20.7322ZM64.3094 45.7285C56.8768 45.7285 50.868 49.9315 47.6737 55.8644C47.0191 57.0801 47.474 58.5962 48.6897 59.2508C49.9054 59.9053 51.4216 59.4504 52.0761 58.2347C54.4948 53.7425 58.911 50.7285 64.3094 50.7285C71.7496 50.7285 77.8474 56.8267 77.8474 64.267C77.8474 71.7074 71.7496 77.8055 64.3094 77.8055C62.9287 77.8055 61.8094 78.9248 61.8094 80.3055C61.8094 81.6863 62.9287 82.8055 64.3094 82.8055C74.5112 82.8055 82.8474 74.4687 82.8474 64.267C82.8474 54.0654 74.5112 45.7285 64.3094 45.7285Z" fill="#B2F7FC"/>
<defs>
<linearGradient id="paint0_linear_1507_7915" x1="0.498055" y1="-8.9407e-08" x2="128.497" y2="127.501" gradientUnits="userSpaceOnUse">
<stop stop-color="#072460"/>
<stop offset="0.44" stop-color="#285A7D"/>
<stop offset="1" stop-color="#74D7BF"/>
</linearGradient>
</defs>
</svg>
