<svg width="128" height="128" viewBox="0 0 128 128" fill="none" xmlns="http://www.w3.org/2000/svg">
<rect width="128" height="128" fill="white"/>
<path d="M64 128C99.3462 128 128 99.3462 128 64C128 28.6538 99.3462 0 64 0C28.6538 0 0 28.6538 0 64C0 99.3462 28.6538 128 64 128Z" fill="#9A4DFF"/>
<path d="M62.75 61.475V74.25H80.875C78.575 80 71.925 83.65 64.2 83.65C53.075 83.65 45.7751 75.675 45.7751 64.075C45.7751 52.325 53.2 44.35 64.2 44.35C71.7 44.35 78.2751 48.25 80.9251 54.5H102.15C100.85 47.5 97.3251 41.1 92.2751 36.225C85.2501 29.45 75.2251 25.375 64.0251 25.375C52.7501 25.375 43.0501 29.425 36.1501 36.225C29.1751 43.1 25.05 52.8 25.05 64.025C25.05 86.4 41.675 102.575 64.2 102.575C87.225 102.575 102.975 85.5 102.975 61.45L62.75 61.475Z" fill="white"/>
<path d="M105.975 24.65H21.675V35.1H105.975V24.65Z" fill="#22272C"/>
<path d="M105.975 35.025H21.675V44.75H105.975V35.025Z" fill="#FE0000"/>
<path d="M105.975 44.65H21.675V54.525H105.975V44.65Z" fill="#FFCC00"/>
</svg>
