<svg width="128" height="128" viewBox="0 0 128 128" fill="none" xmlns="http://www.w3.org/2000/svg">
<rect width="128" height="128" fill="#B57FF9"/>
<path d="M128 128L0 0V128H128Z" fill="#A875EB"/>
<path d="M41 50H87L88.7679 89.778C88.8944 92.6237 86.6214 95 83.7728 95H44.2272C41.3786 95 39.1056 92.6237 39.2321 89.778L41 50Z" fill="#B57FF9"/>
<path d="M77.091 63.909C77.9697 64.7877 77.9697 66.2123 77.091 67.091L60.591 83.591C59.7124 84.4697 58.2877 84.4697 57.4091 83.591L49.4091 75.591C48.5304 74.7123 48.5304 73.2877 49.4091 72.409C50.2877 71.5303 51.7124 71.5303 52.591 72.409L59 78.818L73.909 63.909C74.7877 63.0303 76.2124 63.0303 77.091 63.909Z" fill="white"/>
<path fill-rule="evenodd" clip-rule="evenodd" d="M79.25 47.75V42C79.25 33.5777 72.4224 26.75 64 26.75C55.5777 26.75 48.75 33.5777 48.75 42V47.75H41C39.7963 47.75 38.8057 48.6975 38.7523 49.9001L36.9843 89.6781C36.801 93.8044 40.0968 97.25 44.2272 97.25H83.7729C87.9033 97.25 91.1991 93.8044 91.0157 89.6781L89.2478 49.9001C89.1944 48.6975 88.2038 47.75 87 47.75H79.25ZM64 31.25C58.063 31.25 53.25 36.0629 53.25 42V47.75H74.75V42C74.75 36.0629 69.9371 31.25 64 31.25ZM43.1523 52.25L41.4799 89.8779C41.4103 91.4431 42.6605 92.75 44.2272 92.75H83.7729C85.3396 92.75 86.5897 91.4431 86.5202 89.8779L84.8478 52.25H43.1523Z" fill="white"/>
</svg>
