<svg width="128" height="128" viewBox="0 0 128 128" fill="none" xmlns="http://www.w3.org/2000/svg">
<rect width="128" height="128" fill="white"/>
<rect width="128" height="128" fill="#7F54B3"/>
<path d="M12 0H116V108C116 112.418 112.418 116 108 116H20C15.5817 116 12 112.418 12 108V0Z" fill="white"/>
<path d="M62.2604 63.478C62.26 63.8345 62.2597 64.1926 62.2597 64.553C62.2791 64.553 62.2974 64.5532 62.3145 64.5534C62.3785 64.5543 62.4279 64.5549 62.4705 64.5424C63.0773 64.4167 63.6833 64.2903 64.2892 64.164C65.3944 63.9335 66.4989 63.7032 67.6056 63.4774C67.811 63.435 67.8488 63.3396 67.8488 63.1541C67.8407 62.1766 67.8417 61.196 67.8427 60.217C67.8431 59.8906 67.8434 59.5643 67.8434 59.2384C67.8434 59.193 67.8394 59.1476 67.835 59.0985C67.8322 59.0674 67.8293 59.0349 67.8272 59C67.7191 59.0106 67.6272 59.0212 67.5407 59.0371L67.5395 59.0373C66.8913 59.175 66.243 59.3127 65.5948 59.4451C65.1254 59.5433 64.656 59.6405 64.1871 59.7376C63.6193 59.8551 63.0522 59.9725 62.4867 60.0915C62.3678 60.1127 62.2543 60.1339 62.2543 60.3141C62.2624 61.3658 62.2614 62.4145 62.2604 63.478Z" fill="#32325D"/>
<path d="M44.876 61.5698V61.8825C44.876 62.2729 44.8769 62.6638 44.8778 63.0549C44.88 64.033 44.8822 65.0123 44.8706 65.9889C44.8706 66.2539 44.9355 66.3386 45.2166 66.3333C45.8799 66.3247 46.5433 66.3255 47.2067 66.3262C47.7596 66.3269 48.3124 66.3276 48.8652 66.3227C49.0868 66.3227 49.1571 66.381 49.1571 66.6036C49.1463 67.9653 49.1463 69.3218 49.1571 70.6835C49.1571 70.9326 49.0706 70.975 48.8436 70.9697C48.2354 70.9644 47.6273 70.9644 47.0192 70.9644C46.4111 70.9644 45.803 70.9644 45.1949 70.9591C44.9517 70.9591 44.8706 71.0226 44.8706 71.2717C44.8752 72.3729 44.8739 73.4741 44.8726 74.5754C44.8708 76.044 44.8691 77.5126 44.8814 78.9812C44.8922 80.539 45.8814 81.2967 47.4273 81.1696C47.802 81.1381 48.1719 81.072 48.548 81.0048C48.7417 80.9701 48.937 80.9352 49.1354 80.9046C49.1409 80.9576 49.1463 81.0318 49.1463 81.1113C49.1463 81.4386 49.1459 81.7657 49.1456 82.0925C49.1445 83.0724 49.1435 84.0509 49.1517 85.0323C49.1517 85.2177 49.0922 85.3184 48.9138 85.3873C47.8922 85.8112 46.8219 85.9277 45.7301 85.9807C44.5463 86.039 43.4166 85.8801 42.3679 85.3184C40.6382 84.3964 39.6328 82.9552 39.4652 81.0371C39.3849 80.1585 39.3911 79.2711 39.3974 78.3836C39.3996 78.0776 39.4018 77.7715 39.4004 77.4658C39.395 75.6007 39.395 73.7408 39.4004 71.8757L39.4004 71.8657C39.4112 68.9018 39.422 65.9432 39.4274 62.9793C39.4274 62.7461 39.4923 62.6455 39.7409 62.5978C40.8327 62.3788 41.9198 62.1504 43.0068 61.9219C43.5504 61.8077 44.094 61.6935 44.6382 61.5804C44.6809 61.574 44.7237 61.5734 44.7725 61.5728C44.8039 61.5724 44.8379 61.5719 44.876 61.5698Z" fill="#32325D"/>
<path fill-rule="evenodd" clip-rule="evenodd" d="M75.5891 84.8121L75.589 84.8126C75.5836 84.8773 75.5785 84.938 75.5785 85.0005C75.5785 85.46 75.5782 85.9192 75.5778 86.3783V86.3808C75.5768 87.7575 75.5758 89.1328 75.5839 90.5111C75.5839 90.7548 75.5299 90.8555 75.265 90.9085C73.9824 91.1662 72.7028 91.4354 71.4088 91.7076L71.4086 91.7077L71.4083 91.7077L71.408 91.7078L71.4076 91.7078L71.4072 91.708C70.9457 91.805 70.4823 91.9025 70.0164 92C70.014 91.9507 70.0095 91.9056 70.0052 91.8628L70.0052 91.8626L70.0051 91.8623C69.9998 91.8086 69.9947 91.7586 69.9947 91.7086C69.9947 83.3473 69.9947 74.9807 69.9894 66.6195C69.9894 66.3916 70.038 66.3174 70.2866 66.3174C71.7353 66.328 73.1893 66.328 74.638 66.3174C74.8542 66.3174 74.9407 66.3863 74.9731 66.5824C75.0185 66.8497 75.0782 67.1125 75.1387 67.3792L75.1388 67.3796L75.1515 67.4355C75.1617 67.4754 75.1762 67.5154 75.1936 67.5634L75.1938 67.5641L75.1942 67.565L75.1942 67.5652C75.2043 67.593 75.2154 67.6234 75.2271 67.658C75.3353 67.5732 75.4163 67.5043 75.4974 67.4355C76.8488 66.3068 78.4217 65.8141 80.1731 65.9677C82.2541 66.1479 83.892 67.1493 85.1514 68.7654C86.1784 70.0848 86.7406 71.5949 87.0433 73.211C87.2649 74.3873 87.3081 75.5795 87.2487 76.7664C87.146 78.8117 86.746 80.7881 85.6325 82.5684C84.5406 84.317 83.0055 85.4721 80.9244 85.8589C79.1136 86.198 77.438 85.8748 75.9298 84.8097C75.8749 84.7683 75.8135 84.7302 75.7531 84.6927L75.753 84.6927L75.7504 84.691L75.7357 84.6819L75.7223 84.6736C75.7158 84.6695 75.7093 84.6654 75.7028 84.6614C75.692 84.6667 75.6704 84.6667 75.6001 84.6508C75.5978 84.7083 75.5934 84.7608 75.5892 84.8109L75.5891 84.8115L75.5891 84.8121ZM75.6001 75.9663C75.6001 76.2883 75.5998 76.6103 75.5994 76.9324C75.5984 77.8982 75.5974 78.8648 75.6055 79.8343C75.6055 79.9615 75.6434 80.1257 75.7298 80.2158C76.6704 81.2225 78.7352 81.5511 79.9352 80.6291C80.5785 80.131 81.0055 79.4899 81.292 78.7534C81.7839 77.4923 81.8866 76.1782 81.7136 74.8483C81.5839 73.8415 81.2595 72.8984 80.6487 72.0559C79.3082 70.2013 76.8488 70.6199 75.7515 71.738C75.6596 71.8333 75.5893 71.9923 75.5893 72.1248C75.5763 73.1506 75.5772 74.173 75.5781 75.1975L75.5783 75.4994C75.5784 75.6549 75.5785 75.8106 75.5785 75.9663H75.6001Z" fill="#32325D"/>
<path fill-rule="evenodd" clip-rule="evenodd" d="M93.973 78.0063C94.0486 79.4952 94.854 80.5655 96.0648 81C96.6 81.1908 97.1729 81.3338 97.7405 81.3656C99.7729 81.4822 101.735 81.1696 103.589 80.3112C103.643 80.2847 103.703 80.2635 103.762 80.2423C103.771 80.2392 103.781 80.2415 103.795 80.2449C103.799 80.2459 103.804 80.247 103.809 80.2481C103.817 80.2498 103.827 80.2515 103.838 80.2529C103.84 80.2777 103.842 80.3024 103.844 80.3272C103.849 80.3766 103.854 80.426 103.854 80.4754C103.854 80.797 103.854 81.1189 103.853 81.441V81.442C103.852 82.4092 103.851 83.3778 103.859 84.3434C103.859 84.5289 103.795 84.6243 103.627 84.7091C102.395 85.3237 101.097 85.6946 99.7297 85.8695C98.6756 86.0019 97.6162 86.0602 96.5567 85.9595C92.8703 85.6257 89.9352 83.6758 88.8162 79.6859C88.346 78.0169 88.2703 76.316 88.4271 74.5992C88.5946 72.7818 89.1244 71.0756 90.1568 69.539C91.4865 67.5626 93.3459 66.3492 95.7513 66.0366C97.7675 65.777 99.681 66.0949 101.368 67.2924C102.719 68.2514 103.595 69.5549 104.178 71.065C104.67 72.3314 104.951 73.6508 104.989 75.0072C105.006 75.5674 105 76.1275 104.994 76.6877C104.991 77.0442 104.987 77.4007 104.989 77.7572C104.989 78.0063 104.854 78.0169 104.659 78.0169C102.364 78.0133 100.071 78.0145 97.7775 78.0157C96.6304 78.0163 95.4831 78.0169 94.3351 78.0169C94.2216 78.0063 94.1081 78.0063 93.973 78.0063ZM93.9481 73.9377L93.9506 73.9391C93.9527 73.9404 93.9549 73.9417 93.9569 73.943C93.9651 73.9481 93.9725 73.9528 93.9784 73.9528C94.9142 73.9554 95.85 73.9568 96.7865 73.9581C97.7216 73.9594 98.6574 73.9607 99.5945 73.9634C99.7459 73.9634 99.7729 73.8892 99.7675 73.762C99.7243 73.1527 99.6378 72.5539 99.3621 71.9976C98.8486 70.9697 98.0162 70.3868 96.8432 70.4027C95.0648 70.4345 93.6378 72.1989 93.9351 73.9316C93.9395 73.933 93.9439 73.9352 93.9481 73.9377Z" fill="#32325D"/>
<path d="M36.41 71.7416C36.6531 71.8287 36.898 71.9164 37.1463 72.0029C37.1463 71.9552 37.1463 71.8704 37.1409 71.7962C37.1409 71.4157 37.1406 71.0354 37.1403 70.6553C37.1392 69.5167 37.1382 68.3795 37.1463 67.2394C37.1517 67.0275 37.0761 66.9374 36.8761 66.8632C35.5247 66.3757 34.1355 66.0949 32.6977 66.0048C31.3248 65.92 29.968 65.9677 28.6383 66.3439C27.0437 66.7943 25.714 67.605 24.8329 69.025C24.3356 69.8304 24.0924 70.7153 24.0221 71.6532C23.9302 72.8189 24.114 73.921 24.7789 74.9118C25.3464 75.7596 26.141 76.3743 27.0707 76.7876C27.6544 77.0505 28.2547 77.2809 28.8554 77.5114L28.8555 77.5115C29.2839 77.6759 29.7126 77.8404 30.1356 78.0169C30.741 78.2659 31.341 78.5361 31.9031 78.854C32.4112 79.1402 32.6329 79.6276 32.5139 80.2105C32.4004 80.7722 31.9842 81.0795 31.4437 81.159C30.8599 81.2437 30.2599 81.2967 29.6761 81.249C28.2707 81.1431 26.9302 80.7298 25.6329 80.1946C25.3342 80.0726 25.0426 79.9369 24.7441 79.7979L24.7437 79.7978L24.7434 79.7976L24.743 79.7974C24.5881 79.7253 24.4313 79.6523 24.2708 79.58C24.2668 79.6149 24.2621 79.6462 24.2578 79.6754V79.6754C24.2502 79.7258 24.2437 79.7695 24.2437 79.8131C24.2437 80.2067 24.2441 80.6 24.2444 80.993C24.2454 82.1717 24.2464 83.3488 24.2383 84.5289C24.2383 84.7303 24.3356 84.7991 24.5032 84.8627C26.5734 85.6787 28.7194 86.0708 30.9518 85.9754C31.8977 85.933 32.8275 85.8006 33.7356 85.525C34.8869 85.1753 35.9247 84.6243 36.7463 83.7394C37.9896 82.4041 38.3571 80.8092 38.1896 79.0554C38.0004 77.079 36.8815 75.7437 35.1355 74.8642C34.6545 74.6204 34.1572 74.4138 33.6545 74.223C33.3005 74.0926 32.9439 73.9689 32.5875 73.8453C32.046 73.6574 31.5048 73.4696 30.9734 73.2587C30.6004 73.1103 30.2275 72.8825 29.941 72.6069C29.3842 72.0665 29.5788 71.2028 30.3031 70.9114C30.6166 70.7895 30.9626 70.7206 31.2977 70.7047C32.395 70.6464 33.4761 70.8001 34.5193 71.1074C35.1525 71.2913 35.7744 71.514 36.4094 71.7414L36.41 71.7416Z" fill="#32325D"/>
<path d="M56.1519 67.9331L56.1516 67.9335C56.1231 67.802 56.0945 67.6753 56.0668 67.5521C55.9894 67.2088 55.9183 66.8929 55.8705 66.5771C55.8327 66.3757 55.7462 66.3227 55.5462 66.3227C54.1246 66.3333 52.6976 66.3333 51.276 66.3227C51.0435 66.3227 50.9733 66.381 50.9733 66.6195C50.9787 72.8454 50.9787 79.066 50.9733 85.2919C50.9733 85.5462 51.0489 85.5992 51.2922 85.5992C52.5247 85.5913 53.7542 85.5923 54.9829 85.5933C55.3924 85.5936 55.8017 85.5939 56.2111 85.5939C56.3876 85.5939 56.4755 85.5939 56.5192 85.5509C56.5624 85.5083 56.5624 85.4235 56.5624 85.2548C56.5624 81.106 56.5624 76.9571 56.557 72.8083C56.557 72.6016 56.6111 72.4427 56.757 72.289C57.4381 71.5737 58.2867 71.2134 59.2705 71.1869C59.6398 71.1793 60.0091 71.2073 60.3804 71.2354L60.3806 71.2355C60.5255 71.2464 60.6708 71.2575 60.8164 71.2664C60.8164 71.2664 60.8273 71.2505 60.8273 71.2346C60.8273 70.8385 60.8276 70.4428 60.8279 70.0473V70.0458C60.8289 68.8598 60.8299 67.676 60.8218 66.4923C60.8218 66.4128 60.7083 66.2856 60.6327 66.2697C60.2705 66.1956 59.9083 66.132 59.5408 66.1161C58.1678 66.0631 57.0705 66.5612 56.3192 67.7216C56.2814 67.7745 56.2382 67.8274 56.1519 67.9331Z" fill="#32325D"/>
<path d="M67.8488 75.961C67.8488 76.7383 67.8485 77.5152 67.8482 78.292V78.2925C67.8471 80.6238 67.8461 82.9537 67.8542 85.2866C67.8542 85.5251 67.7948 85.5992 67.5407 85.5992C65.8813 85.5886 64.2272 85.5886 62.5678 85.5992C62.3191 85.5992 62.2543 85.5251 62.2543 85.2866C62.2597 79.0713 62.2597 72.856 62.2543 66.6354C62.2543 66.3969 62.3191 66.3227 62.5678 66.3227C64.2272 66.3333 65.8813 66.3333 67.5407 66.3227C67.7948 66.3227 67.8542 66.3969 67.8542 66.6354C67.8461 68.9644 67.8471 71.2965 67.8482 73.6293V73.6295C67.8485 74.4066 67.8488 75.1838 67.8488 75.961Z" fill="#32325D"/>
<rect x="12" width="104" height="32" fill="#3C2861"/>
<path d="M47.5763 16.55C47.4197 17.2678 47.1294 17.8086 46.7053 18.1724C46.3694 18.4616 46.0614 18.5795 45.7813 18.526C45.5013 18.4725 45.2767 18.2361 45.1077 17.8167C44.9781 17.4985 44.9098 17.1606 44.9059 16.8192C44.9048 16.549 44.9329 16.2795 44.9897 16.0148C45.0988 15.5466 45.3042 15.1038 45.5939 14.7123C45.9746 14.1768 46.3723 13.9519 46.7869 14.0378C47.0669 14.092 47.2911 14.3277 47.4594 14.745C47.5885 15.0629 47.6565 15.4004 47.6601 15.7415C47.6615 16.013 47.6335 16.284 47.5763 16.55Z" fill="white"/>
<path d="M40.4008 16.55C40.2442 17.2692 39.9531 17.8107 39.5275 18.1745C39.1909 18.4637 38.8829 18.5816 38.6036 18.5281C38.3243 18.4746 38.1005 18.2375 37.9321 17.8167C37.8026 17.4985 37.7342 17.1606 37.7304 16.8192C37.7293 16.549 37.7574 16.2795 37.8142 16.0148C37.9243 15.5469 38.1296 15.1043 38.4184 14.7123C38.7976 14.1782 39.1953 13.954 39.6113 14.0399C39.8914 14.0941 40.1152 14.3298 40.2828 14.7471C40.4122 15.0649 40.4806 15.4025 40.4846 15.7436C40.4857 16.0137 40.4576 16.2833 40.4008 16.5479V16.55Z" fill="white"/>
<path fill-rule="evenodd" clip-rule="evenodd" d="M48.4075 9.52417H25.6087C24.9167 9.52445 24.2532 9.78781 23.764 10.2563C23.2748 10.7249 23 11.3602 23 12.0227V20.3499C23.0003 21.0116 23.2748 21.6461 23.7633 22.1141C24.2518 22.5821 24.9143 22.8455 25.6054 22.8463H36.4105L41.35 25.4799L40.2309 22.8463H48.4075C48.75 22.8465 49.0892 22.782 49.4057 22.6566C49.7222 22.5312 50.0098 22.3474 50.252 22.1155C50.4943 21.8837 50.6864 21.6085 50.8176 21.3055C50.9487 21.0026 51.0162 20.6779 51.0162 20.3499V12.0227C51.0163 11.6946 50.9489 11.3697 50.8179 11.0666C50.6869 10.7635 50.4947 10.488 50.2525 10.256C50.0102 10.024 49.7226 9.83995 49.406 9.71438C49.0895 9.5888 48.7502 9.52417 48.4075 9.52417ZM24.4103 11.7862C24.4966 11.683 24.6055 11.5992 24.7293 11.5406C24.8531 11.4821 24.9889 11.4503 25.127 11.4474C25.7084 11.4087 26.0421 11.6712 26.1281 12.2349C26.4868 14.5212 26.8708 16.462 27.2803 18.0573L29.7897 13.4889C30.0168 13.0765 30.3039 12.8583 30.6508 12.8344C31.1536 12.8006 31.4678 13.1071 31.5935 13.7538C31.8297 15.0326 32.1926 16.287 32.6773 17.5C32.9787 14.7175 33.4818 12.706 34.1867 11.4654C34.2547 11.3262 34.3611 11.2075 34.4944 11.1219C34.6277 11.0363 34.7828 10.9872 34.9431 10.9798C35.204 10.9593 35.4631 11.0369 35.6653 11.1962C35.7684 11.2708 35.8532 11.3662 35.9136 11.4756C35.974 11.5851 36.0086 11.7059 36.0148 11.8295C36.0332 12.012 35.9949 12.1957 35.9045 12.3573C35.4576 13.1511 35.0901 14.4709 34.802 16.3167C34.5175 18.0985 34.4124 19.4922 34.4866 20.4977C34.5127 20.7442 34.4665 20.9928 34.3532 21.2155C34.2982 21.328 34.2126 21.4241 34.1052 21.4938C33.9979 21.5634 33.8729 21.6041 33.7435 21.6114C33.4414 21.6325 33.1404 21.4963 32.8372 21.205C31.7728 20.16 30.9275 18.6051 30.3013 16.5405C29.5662 17.9479 29.015 19.0006 28.6474 19.6987C27.9749 20.9372 27.3986 21.5723 26.9186 21.604C26.607 21.6251 26.3416 21.3746 26.1226 20.8524C25.5345 19.419 24.9039 16.6457 24.2306 12.5325C24.204 12.403 24.2062 12.2696 24.2372 12.141C24.2682 12.0124 24.3271 11.8915 24.4103 11.7862ZM49.0207 13.509C48.8315 13.1821 48.5694 12.8991 48.2531 12.6802C47.9368 12.4613 47.5739 12.3118 47.1904 12.2423C46.9859 12.2009 46.7776 12.1797 46.5686 12.179C45.4719 12.179 44.5759 12.7254 43.8805 13.8182C43.2884 14.7476 42.9801 15.8172 42.9907 16.9057C42.9907 17.7502 43.1745 18.4739 43.542 19.077C43.731 19.4042 43.9932 19.6874 44.3097 19.9064C44.6263 20.1254 44.9895 20.2747 45.3734 20.3437C45.5774 20.386 45.7854 20.4075 45.9941 20.4081C47.1018 20.4081 47.9975 19.8616 48.6811 18.7688C49.2732 17.8328 49.5816 16.7576 49.5719 15.6633C49.5719 14.8189 49.3882 14.1008 49.0207 13.509ZM41.8451 13.509C41.656 13.1821 41.3939 12.8991 41.0776 12.6802C40.7612 12.4613 40.3984 12.3118 40.0149 12.2423C39.8104 12.2009 39.602 12.1797 39.393 12.179C38.2956 12.179 37.4 12.7254 36.7061 13.8182C36.1131 14.7473 35.8045 15.817 35.8152 16.9057C35.8152 17.7502 35.999 18.4739 36.3665 19.077C36.5552 19.4045 36.8172 19.6879 37.1339 19.9069C37.4505 20.1259 37.8139 20.275 38.1979 20.3437C38.4018 20.386 38.6099 20.4075 38.8186 20.4081C39.927 20.4081 40.8231 19.8616 41.5067 18.7688C42.1008 17.8333 42.4119 16.7582 42.4052 15.6633C42.4052 14.8189 42.2215 14.1008 41.854 13.509H41.8451Z" fill="white"/>
<path d="M53.9126 13.415C53.1504 14.1405 52.7693 15.0599 52.7693 16.1732C52.7693 17.3744 53.1471 18.3444 53.9027 19.0833C54.6583 19.8222 55.6466 20.1903 56.8675 20.1874C57.2719 20.178 57.6734 20.118 58.0616 20.0091V18.2389C57.7238 18.3413 57.3727 18.3978 57.0186 18.4067C56.4121 18.4067 55.927 18.2118 55.5632 17.8219C55.1993 17.4321 55.0178 16.9026 55.0185 16.2333C55.0185 15.612 55.199 15.0997 55.5599 14.6964C55.7247 14.5039 55.9329 14.3495 56.1689 14.245C56.4049 14.1404 56.6626 14.0883 56.9226 14.0927C57.3081 14.0953 57.6913 14.1486 58.0616 14.251V12.4724C57.653 12.3729 57.2328 12.3243 56.8113 12.3278C55.6433 12.3278 54.6771 12.6902 53.9126 13.415ZM61.8599 12.3278C60.8037 12.3278 59.9786 12.6641 59.3847 13.3369C58.7907 14.0096 58.4967 14.9477 58.5026 16.151C58.5026 17.4557 58.7966 18.4535 59.3847 19.1446C59.9727 19.8356 60.8275 20.1815 61.9492 20.1822C63.0334 20.1822 63.8684 19.8363 64.4542 19.1446C65.0401 18.4528 65.3348 17.4824 65.3385 16.2333C65.3385 14.9814 65.0408 14.0181 64.4454 13.3432C63.85 12.6684 62.9882 12.3299 61.8599 12.3278ZM62.7673 18.0278C62.6727 18.1753 62.5388 18.2961 62.3794 18.3777C62.2199 18.4594 62.0406 18.4989 61.8599 18.4922C61.6889 18.4971 61.5199 18.4562 61.3719 18.3741C61.2239 18.2921 61.1027 18.1721 61.022 18.0278C60.8301 17.7196 60.7342 17.1028 60.7342 16.1774C60.7342 14.7369 61.1138 14.0167 61.8731 14.0167C62.6817 14.0167 63.086 14.7454 63.086 16.2027C63.0838 17.1077 62.9775 17.716 62.7673 18.0278ZM71.0024 12.5389L70.5922 14.2151C70.4856 14.6444 70.386 15.0842 70.2934 15.5346L70.0641 16.6957C69.8436 15.5367 69.5448 14.1521 69.1677 12.5421H66.505L65.505 20.0048H67.4995L68.042 14.8622L69.4037 20.0048H70.8293L72.1281 14.8611L72.6915 19.9932H74.7765L73.718 12.5389H71.0024ZM80.5418 12.5389L80.1316 14.2151C80.025 14.6444 79.9254 15.0842 79.8328 15.5346L79.6035 16.6957C79.383 15.5367 79.0838 14.1521 78.706 12.5421H76.0444L75.0411 19.9974H77.0356L77.577 14.8548L78.9397 19.9974H80.3642L81.6675 14.8611L82.2309 19.9932H84.3158L83.2596 12.5389H80.5418ZM87.0149 17.0461H88.8893V15.4944H87.0149V14.1222H89.1693V12.5389H84.909V20.0017H89.1837V18.4046H87.0149V17.0461ZM95.1154 15.8692C95.4012 15.4347 95.5048 14.9129 95.4054 14.4084C95.306 13.9038 95.011 13.454 94.5796 13.149C94.0055 12.7423 93.2227 12.5389 92.2311 12.5389H89.7768V20.0017H91.8838V16.5986H91.918L93.6204 19.9974H95.8453L94.1628 16.6323C94.5558 16.4794 94.889 16.2126 95.1154 15.8692ZM91.8838 15.7488V13.9766C92.3829 13.9878 92.7405 14.068 92.9566 14.2172C93.1727 14.3664 93.2808 14.6127 93.2808 14.9561C93.2808 15.4698 92.8151 15.7341 91.8838 15.7488ZM96.6888 13.415C95.9244 14.1405 95.5421 15.0599 95.5421 16.1732C95.5421 17.3744 95.9207 18.3427 96.6778 19.0781C97.4349 19.8134 98.4231 20.1815 99.6426 20.1822C100.048 20.1748 100.451 20.1166 100.841 20.0091V18.2389C100.503 18.3413 100.152 18.3978 99.798 18.4067C99.1909 18.4067 98.7054 18.2118 98.3416 17.8219C97.9777 17.4321 97.795 16.9026 97.7936 16.2333C97.7936 15.612 97.9744 15.0997 98.336 14.6964C98.5009 14.5039 98.7091 14.3495 98.9451 14.245C99.1811 14.1404 99.4388 14.0883 99.6988 14.0927C100.085 14.0951 100.47 14.1483 100.841 14.251V12.4724C100.431 12.3726 100.01 12.324 99.5874 12.3278C98.4195 12.3278 97.4533 12.6902 96.6888 13.415ZM103.525 18.4046V17.0461H105.399V15.4944H103.525V14.1222H105.679V12.5389H101.418V20.0017H105.692V18.4046H103.525Z" fill="white"/>
</svg>
