<svg width="128" height="128" viewBox="0 0 128 128" fill="none" xmlns="http://www.w3.org/2000/svg">
<rect width="128" height="128" fill="white"/>
<path fill-rule="evenodd" clip-rule="evenodd" d="M50.1276 21.182C46.2687 23.1908 42.8885 26.0083 40.2175 29.4423C37.5466 32.8764 35.6479 36.8461 34.6508 41.0808C27.363 47.1193 22.1153 55.2588 19.6233 64.3893C17.1312 73.5198 17.5161 83.1967 20.7256 92.1003C23.935 101.004 29.8127 108.701 37.5571 114.141C45.3015 119.582 54.5356 122.501 64 122.501C73.4644 122.501 82.6985 119.582 90.4429 114.141C98.1873 108.701 104.065 101.004 107.274 92.1003C110.484 83.1967 110.869 73.5198 108.377 64.3893C105.885 55.2588 100.637 47.1193 93.3492 41.0808C92.2381 36.3279 89.989 31.9162 86.7954 28.225C83.6019 24.5338 79.5594 21.6737 75.0157 19.8906C74.8572 18.734 74.3979 17.6391 73.6837 16.7155C72.9695 15.7919 72.0255 15.0719 70.946 14.6273C70.8487 12.5889 70.066 10.643 68.7247 9.10493C67.3834 7.56687 65.562 6.52676 63.5557 6.15313C61.5494 5.7795 59.4758 6.09424 57.6707 7.04634C55.8656 7.99845 54.4349 9.53214 53.6104 11.3989C52.1 14.5248 50.9323 17.8049 50.1276 21.182V21.182Z" fill="#395360"/>
<path d="M76.2289 56.1273H52.7495V83.5199H76.2289V56.1273Z" fill="#FBAA6F"/>
<path fill-rule="evenodd" clip-rule="evenodd" d="M68.148 70.1756L67.9132 70.0191C67.3165 69.5858 66.9163 68.9332 66.8007 68.2048C66.6851 67.4765 66.8636 66.732 67.2969 66.1352C67.7302 65.5385 68.3828 65.1383 69.1112 65.0227C69.8396 64.9071 70.584 65.0856 71.1808 65.5189C70.1672 65.7307 69.2789 66.3356 68.7104 67.2012C68.142 68.0667 67.9397 69.1222 68.148 70.1365V70.1756ZM59.3824 70.1756C59.4957 69.6485 59.4858 69.1024 59.3534 68.5798C59.2211 68.0571 58.9699 67.5721 58.6193 67.1625C58.0479 66.3473 57.1873 65.7805 56.2127 65.5776V65.5776C56.5082 65.3631 56.843 65.2088 57.1981 65.1237C57.5532 65.0385 57.9216 65.0242 58.2823 65.0814C58.6429 65.1386 58.9888 65.2663 59.3001 65.4572C59.6114 65.6481 59.882 65.8984 60.0966 66.1939C60.3111 66.4894 60.4654 66.8243 60.5505 67.1794C60.6356 67.5345 60.65 67.9029 60.5928 68.2635C60.5355 68.6242 60.4078 68.97 60.2169 69.2813C60.0261 69.5926 59.7757 69.8633 59.4802 70.0778L59.3824 70.1756ZM73.5092 63.9536H74.5462L72.4526 73.3845L68.2654 85.9655H59.8715L53.5908 75.4781L55.6844 69.1973C57.778 71.9953 59.1867 73.7367 59.8715 74.4411C60.9281 75.4781 65.1153 75.4781 67.2089 73.3845C69.6539 70.4855 71.7671 67.3222 73.5092 63.9536V63.9536Z" fill="#DC7F3C"/>
<path fill-rule="evenodd" clip-rule="evenodd" d="M36.5879 61.9972H46.8796V44.3876H38.9358C39.5406 40.1559 41.2022 36.1449 43.7671 32.7251C46.3319 29.3053 49.7173 26.587 53.6104 24.8215C55.0974 18.2995 56.8649 13.8971 58.9128 11.6144L59.265 11.2817L59.4802 11.0861C60.09 10.5965 60.8196 10.279 61.5934 10.1665C62.504 10.0226 63.4368 10.1594 64.2677 10.5586C65.0986 10.9578 65.7883 11.6006 66.245 12.4014C66.7017 13.2022 66.9038 14.1231 66.8243 15.0415C66.7448 15.96 66.3876 16.8325 65.8001 17.5429H65.6827C65.512 17.7563 65.3147 17.9469 65.0957 18.1103C64.1731 19.0754 63.3167 20.1017 62.5326 21.1822C64.0929 19.5572 66.1662 18.5206 68.4024 18.2473C68.8523 18.2416 69.2964 18.3493 69.6938 18.5603C70.289 18.8939 70.7281 19.4495 70.915 20.1057C71.102 20.7619 71.0217 21.4655 70.6916 22.0627C70.4399 22.5535 70.0247 22.9411 69.5177 23.1584C74.6387 24.2657 79.2928 26.9275 82.844 30.7798C86.3951 34.6321 88.67 39.4871 89.3577 44.6811L89.5925 46.3834H82.0987V62.0363H91.5491L95.0515 88.3136C86.7946 93.44 76.4571 96.0031 64.0392 96.0031C51.6212 96.0031 41.3359 93.4334 33.1833 88.2941L36.5879 61.9972ZM66.1914 80.3698C71.2395 72.0346 73.7635 67.0713 73.7635 65.48C73.7635 61.1167 67.4045 57.5361 64.2348 57.5361C61.0651 57.5361 54.7061 61.0971 54.7061 65.48C54.7061 67.0713 57.191 72.0411 62.1608 80.3894C62.382 80.7374 62.6889 81.0227 63.0521 81.218C63.4153 81.4133 63.8225 81.512 64.2348 81.5046C64.6305 81.5217 65.0232 81.4282 65.3688 81.2347C65.7143 81.0412 65.9992 80.7552 66.1914 80.4089V80.3698Z" fill="#BDCFC8"/>
<path fill-rule="evenodd" clip-rule="evenodd" d="M95.423 100.777C91.7814 105.671 87.0462 109.645 81.5954 112.384C76.1446 115.122 70.1291 116.548 64.0291 116.548C57.9292 116.548 51.9137 115.122 46.4629 112.384C41.0121 109.645 36.2769 105.671 32.6353 100.777L34.2788 88.8223C34.9009 89.0715 35.5653 89.1977 36.2354 89.194C37.5712 89.198 38.8634 88.7189 39.8738 87.8452C40.8842 86.9714 41.5447 85.7618 41.7335 84.4395V84.4395V86.8265C41.7335 87.5562 41.8772 88.2788 42.1565 88.953C42.4357 89.6272 42.8451 90.2398 43.3611 90.7558C43.877 91.2718 44.4896 91.6811 45.1638 91.9603C45.838 92.2396 46.5606 92.3833 47.2903 92.3833C48.02 92.3833 48.7426 92.2396 49.4168 91.9603C50.091 91.6811 50.7035 91.2718 51.2195 90.7558C51.7355 90.2398 52.1448 89.6272 52.4241 88.953C52.7033 88.2788 52.8471 87.5562 52.8471 86.8265V86.8265V89.9962C52.9313 91.4155 53.5544 92.7491 54.5891 93.7242C55.6238 94.6993 56.9919 95.2424 58.4136 95.2424C59.8354 95.2424 61.2035 94.6993 62.2382 93.7242C63.2729 92.7491 63.896 91.4155 63.9802 89.9962C63.9802 91.47 64.5657 92.8834 65.6078 93.9255C66.6499 94.9676 68.0632 95.553 69.537 95.553C71.0107 95.553 72.4241 94.9676 73.4662 93.9255C74.5083 92.8834 75.0938 91.47 75.0938 89.9962V86.9244C75.0938 88.3981 75.6792 89.8115 76.7213 90.8536C77.7634 91.8957 79.1768 92.4811 80.6506 92.4811C82.1243 92.4811 83.5377 91.8957 84.5798 90.8536C85.6219 89.8115 86.2073 88.3981 86.2073 86.9244V84.5373C86.3151 85.2844 86.5693 86.0028 86.9554 86.6514C87.3415 87.3 87.8519 87.8659 88.4573 88.3168C89.0626 88.7676 89.7511 89.0945 90.4831 89.2786C91.2151 89.4627 91.9762 89.5005 92.7229 89.3897C93.1034 89.3287 93.4769 89.2304 93.8381 89.0962L95.423 100.777Z" fill="#809EB0"/>
<path fill-rule="evenodd" clip-rule="evenodd" d="M33.7705 92.6178L34.2792 88.9198C34.9013 89.169 35.5657 89.2952 36.2358 89.2916C37.5716 89.2955 38.8638 88.8165 39.8742 87.9427C40.8846 87.069 41.5451 85.8594 41.7339 84.537V84.537V86.9241C41.7339 88.3978 42.3194 89.8112 43.3615 90.8533C44.4036 91.8954 45.817 92.4808 47.2907 92.4808C48.7645 92.4808 50.1779 91.8954 51.22 90.8533C52.262 89.8112 52.8475 88.3978 52.8475 86.9241V90.0938C52.9317 91.5131 53.5548 92.8466 54.5895 93.8217C55.6242 94.7969 56.9923 95.34 58.4141 95.34C59.8358 95.34 61.2039 94.7969 62.2386 93.8217C63.2733 92.8466 63.8964 91.5131 63.9806 90.0938V90.0938C63.9806 91.5675 64.5661 92.9809 65.6082 94.023C66.6503 95.0651 68.0637 95.6506 69.5374 95.6506C71.0112 95.6506 72.4245 95.0651 73.4666 94.023C74.5087 92.9809 75.0942 91.5675 75.0942 90.0938V90.0938V86.9241C75.0942 88.3978 75.6796 89.8112 76.7217 90.8533C77.7638 91.8954 79.1772 92.4808 80.651 92.4808C82.1247 92.4808 83.5381 91.8954 84.5802 90.8533C85.6223 89.8112 86.2078 88.3978 86.2078 86.9241V84.537C86.3155 85.2841 86.5697 86.0025 86.9558 86.6511C87.3419 87.2997 87.8523 87.8656 88.4577 88.3165C89.0631 88.7673 89.7515 89.0942 90.4835 89.2783C91.2155 89.4624 91.9767 89.5002 92.7233 89.3894C93.1038 89.3284 93.4773 89.2301 93.8386 89.0959L94.3277 92.7939C92.9992 93.442 91.4677 93.536 90.0698 93.0554C88.672 92.5747 87.5221 91.5588 86.873 90.2307C86.6161 89.7207 86.4443 89.1722 86.3643 88.6067V90.9938C86.3643 92.4676 85.7788 93.881 84.7367 94.9231C83.6946 95.9651 82.2813 96.5506 80.8075 96.5506C79.3338 96.5506 77.9204 95.9651 76.8783 94.9231C75.8362 93.881 75.2507 92.4676 75.2507 90.9938V94.1635C75.2507 95.6373 74.6653 97.0507 73.6232 98.0928C72.5811 99.1349 71.1677 99.7203 69.6939 99.7203C68.2202 99.7203 66.8068 99.1349 65.7647 98.0928C64.7226 97.0507 64.1372 95.6373 64.1372 94.1635V94.1635C64.053 95.5828 63.4298 96.9163 62.3952 97.8915C61.3605 98.8666 59.9924 99.4097 58.5706 99.4097C57.1488 99.4097 55.7807 98.8666 54.746 97.8915C53.7113 96.9163 53.0882 95.5828 53.004 94.1635V90.8373C53.004 92.311 52.4186 93.7244 51.3765 94.7665C50.3344 95.8086 48.921 96.3941 47.4472 96.3941C45.9735 96.3941 44.5601 95.8086 43.518 94.7665C42.4759 93.7244 41.8905 92.311 41.8905 90.8373V90.8373V88.4502C41.7212 89.8107 41.0533 91.06 40.016 91.9564C38.9786 92.8528 37.6456 93.3325 36.275 93.3026C35.4059 93.3041 34.5484 93.1031 33.7705 92.7156V92.6178Z" fill="#738E9E"/>
<path fill-rule="evenodd" clip-rule="evenodd" d="M91.4516 49.0637C89.495 43.4482 85.5818 39.8872 82.2164 40.2394C77.9119 40.6894 76.8553 47.5963 77.7358 55.8923C78.6163 64.1884 81.062 70.6843 85.3666 70.2343C89.6711 69.7843 93.193 62.6231 92.5669 54.5814C92.4104 56.988 91.5495 59.0425 89.8472 59.1794C87.6558 59.3751 87.0297 56.8511 86.7362 53.6618C86.4427 50.4725 86.4623 47.7919 88.6928 47.6354C89.2399 47.5938 89.7878 47.7054 90.2751 47.9577C90.7624 48.21 91.1698 48.5929 91.4516 49.0637V49.0637Z" fill="#86A196"/>
<path fill-rule="evenodd" clip-rule="evenodd" d="M89.9251 47.8114C88.6924 45.4439 86.9902 43.996 85.2488 44.1917C82.2943 44.4852 81.5899 49.2202 82.1769 54.8944C82.7639 60.5686 84.4661 65.0296 87.401 64.6774C89.5729 64.4427 91.1773 61.7425 91.6273 58.0641C91.4438 58.3726 91.1908 58.634 90.8885 58.8276C90.5862 59.0212 90.2429 59.1416 89.8859 59.1794C87.6945 59.375 87.0684 56.851 86.7749 53.6617C86.4814 50.4724 86.501 47.7919 88.7315 47.6353C89.1371 47.6156 89.5425 47.6754 89.9251 47.8114V47.8114Z" fill="white"/>
<path fill-rule="evenodd" clip-rule="evenodd" d="M36.3136 49.0637C38.2703 43.4482 42.1835 39.8872 45.5489 40.2394C49.8534 40.6894 50.91 47.5963 50.0295 55.8923C49.149 64.1884 46.7033 70.6843 42.3987 70.2343C38.0942 69.7843 34.5723 62.6231 35.1984 54.5814C35.3549 56.988 36.1962 59.0425 37.9181 59.1794C40.1095 59.3751 40.7356 56.8511 41.0095 53.6618C41.2834 50.4725 41.303 47.7919 39.0529 47.6354C38.503 47.58 37.9487 47.6811 37.4537 47.9268C36.9588 48.1726 36.5432 48.5531 36.2549 49.0246L36.3136 49.0637Z" fill="#86A196"/>
<path fill-rule="evenodd" clip-rule="evenodd" d="M37.8207 47.8114C39.0533 45.4439 40.7752 43.996 42.5165 44.1917C45.4515 44.4852 46.1754 49.2202 45.5689 54.8944C44.9623 60.5686 43.2992 65.0296 40.3447 64.6774C38.1729 64.4427 36.5684 61.7425 36.1184 58.0641C36.3062 58.373 36.5629 58.6344 36.8683 58.8278C37.1738 59.0213 37.5198 59.1416 37.8794 59.1794C40.0512 59.375 40.6969 56.851 40.9708 53.6617C41.2447 50.4724 41.2447 47.7919 39.0142 47.6353C38.5919 47.6022 38.1671 47.6487 37.762 47.7723L37.8207 47.8114Z" fill="white"/>
<path fill-rule="evenodd" clip-rule="evenodd" d="M54.7063 61.2729V59.9228C54.7063 55.09 57.0738 49.5919 64.235 49.5919C71.3962 49.5919 73.7637 55.09 73.7637 59.9228C73.7574 60.5829 73.672 61.2398 73.5094 61.8795C71.9441 59.238 69.0091 57.614 64.1176 57.614C59.2261 57.614 56.4673 59.0228 54.7063 61.2729Z" fill="#F4F8FF"/>
<path fill-rule="evenodd" clip-rule="evenodd" d="M69.4197 23.1779L63.1977 22.8648L70.8872 20.5952C70.9298 21.1232 70.8126 21.6518 70.5509 22.1123C70.2892 22.5729 69.8951 22.9442 69.4197 23.1779V23.1779ZM62.5324 21.1821L59.9497 23.1387C61.5535 20.8858 62.8682 18.4405 63.8629 15.8601C64.4307 14.1808 64.6439 12.4019 64.4891 10.636C65.2629 11.067 65.8972 11.7107 66.3168 12.4909C66.7363 13.271 66.9236 14.1551 66.8566 15.0384C66.7357 16.1668 66.2152 17.2147 65.3891 17.9929C64.3605 18.985 63.4057 20.0509 62.5324 21.1821V21.1821Z" fill="#86A196"/>
</svg>
